<!-- Generated by IcoMoon.io -->
<svg version="1.1" xmlns="http://www.w3.org/2000/svg" width="203" height="32" viewBox="0 0 203 32">
<title>herodotsM</title>
<path fill="#f8d24e" d="M155.222 29.617c0 0.982-0.739 1.778-1.65 1.778s-1.65-0.796-1.65-1.778c0-0.982 0.739-1.778 1.65-1.778s1.65 0.796 1.65 1.778z"></path>
<path fill="#f8d24e" d="M158.798 27.245c0 0.982-0.739 1.778-1.65 1.778s-1.65-0.796-1.65-1.778c0-0.982 0.739-1.778 1.65-1.778s1.65 0.796 1.65 1.778z"></path>
<path fill="#f8d24e" d="M162.922 24.578c0 0.982-0.739 1.778-1.65 1.778s-1.65-0.796-1.65-1.778c0-0.982 0.739-1.778 1.65-1.778s1.65 0.796 1.65 1.778z"></path>
<path fill="#f8d24e" d="M166.773 22.207c0 0.982-0.739 1.778-1.65 1.778s-1.65-0.796-1.65-1.778c0-0.982 0.739-1.778 1.65-1.778s1.65 0.796 1.65 1.778z"></path>
<path fill="#f8d24e" d="M164.572 28.431c0 0.982-0.739 1.778-1.65 1.778s-1.65-0.796-1.65-1.778c0-0.982 0.739-1.778 1.65-1.778s1.65 0.796 1.65 1.778z"></path>
<path fill="#f8d24e" d="M168.147 26.060c0 0.982-0.739 1.778-1.65 1.778s-1.65-0.796-1.65-1.778c0-0.982 0.739-1.778 1.65-1.778s1.65 0.796 1.65 1.778z"></path>
<path fill="#f8d24e" d="M172.273 23.392c0 0.982-0.739 1.778-1.65 1.778s-1.65-0.796-1.65-1.778c0-0.982 0.739-1.778 1.65-1.778s1.65 0.796 1.65 1.778z"></path>
<path fill="#f8d24e" d="M176.123 21.021c0 0.982-0.739 1.778-1.65 1.778s-1.65-0.796-1.65-1.778c0-0.982 0.739-1.778 1.65-1.778s1.65 0.796 1.65 1.778z"></path>
<path fill="#f8d24e" d="M172.549 27.542c0 0.982-0.739 1.778-1.65 1.778s-1.65-0.796-1.65-1.778c0-0.982 0.739-1.778 1.65-1.778s1.65 0.796 1.65 1.778z"></path>
<path fill="#f8d24e" d="M176.125 25.171c0 0.982-0.739 1.778-1.65 1.778s-1.65-0.796-1.65-1.778c0-0.982 0.739-1.778 1.65-1.778s1.65 0.796 1.65 1.778z"></path>
<path fill="#f8d24e" d="M180.25 22.503c0 0.982-0.739 1.778-1.65 1.778s-1.65-0.796-1.65-1.778c0-0.982 0.739-1.778 1.65-1.778s1.65 0.796 1.65 1.778z"></path>
<path fill="#f8d24e" d="M184.099 20.132c0 0.982-0.739 1.778-1.65 1.778s-1.65-0.796-1.65-1.778c0-0.982 0.739-1.778 1.65-1.778s1.65 0.796 1.65 1.778z"></path>
<path fill="#f8d24e" d="M180.248 26.357c0 0.982-0.739 1.778-1.65 1.778s-1.65-0.796-1.65-1.778c0-0.982 0.739-1.778 1.65-1.778s1.65 0.796 1.65 1.778z"></path>
<path fill="#f8d24e" d="M183.823 23.985c0 0.982-0.739 1.778-1.65 1.778s-1.65-0.796-1.65-1.778c0-0.982 0.739-1.778 1.65-1.778s1.65 0.796 1.65 1.778z"></path>
<path fill="#f8d24e" d="M187.949 21.318c0 0.982-0.739 1.778-1.65 1.778s-1.65-0.796-1.65-1.778c0-0.982 0.739-1.778 1.65-1.778s1.65 0.796 1.65 1.778z"></path>
<path fill="#f8d24e" d="M191.799 18.947c0 0.982-0.739 1.778-1.65 1.778s-1.65-0.796-1.65-1.778c0-0.982 0.739-1.778 1.65-1.778s1.65 0.796 1.65 1.778z"></path>
<path fill="#f8d24e" d="M182.725 29.617c0 0.982-0.739 1.778-1.65 1.778s-1.65-0.796-1.65-1.778c0-0.982 0.739-1.778 1.65-1.778s1.65 0.796 1.65 1.778z"></path>
<path fill="#f8d24e" d="M186.3 27.245c0 0.982-0.739 1.778-1.65 1.778s-1.65-0.796-1.65-1.778c0-0.982 0.739-1.778 1.65-1.778s1.65 0.796 1.65 1.778z"></path>
<path fill="#f8d24e" d="M191.25 29.913c0 0.982-0.739 1.778-1.65 1.778s-1.65-0.796-1.65-1.778c0-0.982 0.739-1.778 1.65-1.778s1.65 0.796 1.65 1.778z"></path>
<path fill="#f8d24e" d="M190.426 24.578c0 0.982-0.739 1.778-1.65 1.778s-1.65-0.796-1.65-1.778c0-0.982 0.739-1.778 1.65-1.778s1.65 0.796 1.65 1.778z"></path>
<path fill="#f8d24e" d="M195.376 27.245c0 0.982-0.739 1.778-1.65 1.778s-1.65-0.796-1.65-1.778c0-0.982 0.739-1.778 1.65-1.778s1.65 0.796 1.65 1.778z"></path>
<path fill="#f8d24e" d="M199.226 29.913c0 0.982-0.739 1.778-1.65 1.778s-1.65-0.796-1.65-1.778c0-0.982 0.739-1.778 1.65-1.778s1.65 0.796 1.65 1.778z"></path>
<path fill="#f8d24e" d="M194.275 22.207c0 0.982-0.739 1.778-1.65 1.778s-1.65-0.796-1.65-1.778c0-0.982 0.739-1.778 1.65-1.778s1.65 0.796 1.65 1.778z"></path>
<path fill="#f8d24e" d="M199.226 24.874c0 0.982-0.739 1.778-1.65 1.778s-1.65-0.796-1.65-1.778c0-0.982 0.739-1.778 1.65-1.778s1.65 0.796 1.65 1.778z"></path>
<path fill="#f8d24e" d="M203.077 27.542c0 0.982-0.739 1.778-1.65 1.778s-1.65-0.796-1.65-1.778c0-0.982 0.739-1.778 1.65-1.778s1.65 0.796 1.65 1.778z"></path>
<path fill="#f8d24e" d="M138.448 10.055c0 0.982-0.739 1.778-1.65 1.778s-1.65-0.796-1.65-1.778c0-0.982 0.739-1.778 1.65-1.778s1.65 0.796 1.65 1.778z"></path>
<path fill="#f8d24e" d="M142.022 7.684c0 0.982-0.739 1.778-1.65 1.778s-1.65-0.796-1.65-1.778c0-0.982 0.739-1.778 1.65-1.778s1.65 0.796 1.65 1.778z"></path>
<path fill="#f8d24e" d="M146.149 5.016c0 0.982-0.739 1.778-1.65 1.778s-1.65-0.796-1.65-1.778c0-0.982 0.739-1.778 1.65-1.778s1.65 0.796 1.65 1.778z"></path>
<path fill="#f8d24e" d="M149.997 2.645c0 0.982-0.739 1.778-1.65 1.778s-1.65-0.796-1.65-1.778c0-0.982 0.739-1.778 1.65-1.778s1.65 0.796 1.65 1.778z"></path>
<path fill="#f8d24e" d="M131.571 9.758c0 0.982-0.739 1.778-1.65 1.778s-1.65-0.796-1.65-1.778c0-0.982 0.739-1.778 1.65-1.778s1.65 0.796 1.65 1.778z"></path>
<path fill="#f8d24e" d="M135.145 7.387c0 0.982-0.739 1.778-1.65 1.778s-1.65-0.796-1.65-1.778c0-0.982 0.739-1.778 1.65-1.778s1.65 0.796 1.65 1.778z"></path>
<path fill="#f8d24e" d="M139.271 4.72c0 0.982-0.739 1.778-1.65 1.778s-1.65-0.796-1.65-1.778c0-0.982 0.739-1.778 1.65-1.778s1.65 0.796 1.65 1.778z"></path>
<path fill="#f8d24e" d="M143.12 2.349c0 0.982-0.739 1.778-1.65 1.778s-1.65-0.796-1.65-1.778c0-0.982 0.739-1.778 1.65-1.778s1.65 0.796 1.65 1.778z"></path>
<path fill="#f8d24e" d="M146.971 29.617c0 0.982-0.739 1.778-1.65 1.778s-1.65-0.796-1.65-1.778c0-0.982 0.739-1.778 1.65-1.778s1.65 0.796 1.65 1.778z"></path>
<path fill="#f8d24e" d="M150.546 27.245c0 0.982-0.739 1.778-1.65 1.778s-1.65-0.796-1.65-1.778c0-0.982 0.739-1.778 1.65-1.778s1.65 0.796 1.65 1.778z"></path>
<path fill="#f8d24e" d="M154.672 24.578c0 0.982-0.739 1.778-1.65 1.778s-1.65-0.796-1.65-1.778c0-0.982 0.739-1.778 1.65-1.778s1.65 0.796 1.65 1.778z"></path>
<path fill="#f8d24e" d="M158.522 22.207c0 0.982-0.739 1.778-1.65 1.778s-1.65-0.796-1.65-1.778c0-0.982 0.739-1.778 1.65-1.778s1.65 0.796 1.65 1.778z"></path>
<path fill="#f8d24e" d="M142.571 27.838c0 0.982-0.739 1.778-1.65 1.778s-1.65-0.796-1.65-1.778c0-0.982 0.739-1.778 1.65-1.778s1.65 0.796 1.65 1.778z"></path>
<path fill="#f8d24e" d="M146.146 25.467c0 0.982-0.739 1.778-1.65 1.778s-1.65-0.796-1.65-1.778c0-0.982 0.739-1.778 1.65-1.778s1.65 0.796 1.65 1.778z"></path>
<path fill="#f8d24e" d="M150.272 22.799c0 0.982-0.739 1.778-1.65 1.778s-1.65-0.796-1.65-1.778c0-0.982 0.739-1.778 1.65-1.778s1.65 0.796 1.65 1.778z"></path>
<path fill="#f8d24e" d="M154.121 20.429c0 0.982-0.739 1.778-1.65 1.778s-1.65-0.796-1.65-1.778c0-0.982 0.739-1.778 1.65-1.778s1.65 0.796 1.65 1.778z"></path>
<path fill="#f8d24e" d="M144.222 21.614c0 0.982-0.739 1.778-1.65 1.778s-1.65-0.796-1.65-1.778c0-0.982 0.739-1.778 1.65-1.778s1.65 0.796 1.65 1.778z"></path>
<path fill="#f8d24e" d="M147.796 19.243c0 0.982-0.739 1.778-1.65 1.778s-1.65-0.796-1.65-1.778c0-0.982 0.739-1.778 1.65-1.778s1.65 0.796 1.65 1.778z"></path>
<path fill="#f8d24e" d="M151.923 16.575c0 0.982-0.739 1.778-1.65 1.778s-1.65-0.796-1.65-1.778c0-0.982 0.739-1.778 1.65-1.778s1.65 0.796 1.65 1.778z"></path>
<path fill="#f8d24e" d="M155.772 14.204c0 0.982-0.739 1.778-1.65 1.778s-1.65-0.796-1.65-1.778c0-0.982 0.739-1.778 1.65-1.778s1.65 0.796 1.65 1.778z"></path>
<path fill="#f8d24e" d="M144.222 11.24c0 0.982-0.739 1.778-1.65 1.778s-1.65-0.796-1.65-1.778c0-0.982 0.739-1.778 1.65-1.778s1.65 0.796 1.65 1.778z"></path>
<path fill="#f8d24e" d="M147.796 8.869c0 0.982-0.739 1.778-1.65 1.778s-1.65-0.796-1.65-1.778c0-0.982 0.739-1.778 1.65-1.778s1.65 0.796 1.65 1.778z"></path>
<path fill="#f8d24e" d="M151.923 6.202c0 0.982-0.739 1.778-1.65 1.778s-1.65-0.796-1.65-1.778c0-0.982 0.739-1.778 1.65-1.778s1.65 0.796 1.65 1.778z"></path>
<path fill="#f8d24e" d="M155.772 3.83c0 0.982-0.739 1.778-1.65 1.778s-1.65-0.796-1.65-1.778c0-0.982 0.739-1.778 1.65-1.778s1.65 0.796 1.65 1.778z"></path>
<path fill="#f8d24e" d="M143.397 16.872c0 0.982-0.739 1.778-1.65 1.778s-1.65-0.796-1.65-1.778c0-0.982 0.739-1.778 1.65-1.778s1.65 0.796 1.65 1.778z"></path>
<path fill="#f8d24e" d="M146.972 14.501c0 0.982-0.739 1.778-1.65 1.778s-1.65-0.796-1.65-1.778c0-0.982 0.739-1.778 1.65-1.778s1.65 0.796 1.65 1.778z"></path>
<path fill="#f8d24e" d="M151.097 11.833c0 0.982-0.739 1.778-1.65 1.778s-1.65-0.796-1.65-1.778c0-0.982 0.739-1.778 1.65-1.778s1.65 0.796 1.65 1.778z"></path>
<path fill="#f8d24e" d="M154.947 9.462c0 0.982-0.739 1.778-1.65 1.778s-1.65-0.796-1.65-1.778c0-0.982 0.739-1.778 1.65-1.778s1.65 0.796 1.65 1.778z"></path>
<path fill="#f8d24e" d="M126.070 8.276c0 0.982-0.739 1.778-1.65 1.778s-1.65-0.796-1.65-1.778c0-0.982 0.739-1.778 1.65-1.778s1.65 0.796 1.65 1.778z"></path>
<path fill="#f8d24e" d="M129.646 5.905c0 0.982-0.739 1.778-1.65 1.778s-1.65-0.796-1.65-1.778c0-0.982 0.739-1.778 1.65-1.778s1.65 0.796 1.65 1.778z"></path>
<path fill="#f8d24e" d="M133.771 3.238c0 0.982-0.739 1.778-1.65 1.778s-1.65-0.796-1.65-1.778c0-0.982 0.739-1.778 1.65-1.778s1.65 0.796 1.65 1.778z"></path>
<path fill="#f8d24e" d="M131.846 10.055c0.911 0 1.65-0.796 1.65-1.778s-0.738-1.778-1.65-1.778c-0.911 0-1.65 0.796-1.65 1.778s0.739 1.778 1.65 1.778z"></path>
<path fill="#f8d24e" d="M61.505 21.475c0.14 0.985-0.487 1.906-1.401 2.057s-1.769-0.525-1.909-1.51c-0.14-0.985 0.487-1.906 1.401-2.057s1.769 0.525 1.909 1.51z"></path>
<path fill="#f8d24e" d="M64.753 18.503c0.14 0.985-0.487 1.906-1.401 2.057s-1.769-0.525-1.909-1.51c-0.14-0.985 0.487-1.906 1.401-2.057s1.769 0.525 1.909 1.51z"></path>
<path fill="#f8d24e" d="M68.511 15.144c0.14 0.985-0.487 1.906-1.401 2.057s-1.769-0.525-1.909-1.51c-0.14-0.985 0.487-1.906 1.401-2.057s1.769 0.525 1.909 1.51z"></path>
<path fill="#f8d24e" d="M72.034 12.128c0.14 0.985-0.487 1.906-1.401 2.057s-1.769-0.525-1.909-1.51c-0.14-0.985 0.487-1.906 1.401-2.057s1.769 0.525 1.909 1.51z"></path>
<path fill="#f8d24e" d="M8.886 20.647c0 0.958-0.749 1.735-1.674 1.735s-1.674-0.777-1.674-1.735c0-0.958 0.749-1.735 1.674-1.735s1.674 0.777 1.674 1.735z"></path>
<path fill="#f8d24e" d="M12.511 18.333c0 0.958-0.749 1.735-1.674 1.735s-1.674-0.777-1.674-1.735c0-0.958 0.749-1.735 1.674-1.735s1.674 0.777 1.674 1.735z"></path>
<path fill="#f8d24e" d="M16.697 15.73c0 0.958-0.749 1.735-1.674 1.735s-1.674-0.777-1.674-1.735c0-0.958 0.749-1.735 1.674-1.735s1.674 0.777 1.674 1.735z"></path>
<path fill="#f8d24e" d="M20.602 13.416c0 0.958-0.749 1.735-1.674 1.735s-1.674-0.777-1.674-1.735c0-0.958 0.749-1.735 1.674-1.735s1.674 0.777 1.674 1.735z"></path>
<path fill="#f8d24e" d="M10.56 24.985c0 0.958-0.749 1.735-1.674 1.735s-1.674-0.777-1.674-1.735c0-0.958 0.749-1.735 1.674-1.735s1.674 0.777 1.674 1.735z"></path>
<path fill="#f8d24e" d="M14.186 22.671c0 0.958-0.749 1.735-1.674 1.735s-1.674-0.777-1.674-1.735c0-0.958 0.749-1.735 1.674-1.735s1.674 0.777 1.674 1.735z"></path>
<path fill="#f8d24e" d="M18.371 20.068c0 0.958-0.749 1.735-1.674 1.735s-1.674-0.777-1.674-1.735c0-0.958 0.749-1.735 1.674-1.735s1.674 0.777 1.674 1.735z"></path>
<path fill="#f8d24e" d="M22.276 17.754c0 0.958-0.749 1.735-1.674 1.735s-1.674-0.777-1.674-1.735c0-0.958 0.749-1.735 1.674-1.735s1.674 0.777 1.674 1.735z"></path>
<path fill="#f8d24e" d="M14.743 27.298c0 0.958-0.749 1.735-1.674 1.735s-1.674-0.777-1.674-1.735c0-0.958 0.749-1.735 1.674-1.735s1.674 0.777 1.674 1.735z"></path>
<path fill="#f8d24e" d="M18.37 24.985c0 0.958-0.749 1.735-1.674 1.735s-1.674-0.777-1.674-1.735c0-0.958 0.749-1.735 1.674-1.735s1.674 0.777 1.674 1.735z"></path>
<path fill="#f8d24e" d="M22.554 22.382c0 0.958-0.749 1.735-1.674 1.735s-1.674-0.777-1.674-1.735c0-0.958 0.749-1.735 1.674-1.735s1.674 0.777 1.674 1.735z"></path>
<path fill="#f8d24e" d="M26.459 20.068c0 0.958-0.749 1.735-1.674 1.735s-1.674-0.777-1.674-1.735c0-0.958 0.749-1.735 1.674-1.735s1.674 0.777 1.674 1.735z"></path>
<path fill="#f8d24e" d="M19.485 28.745c0 0.958-0.749 1.735-1.674 1.735s-1.674-0.777-1.674-1.735c0-0.958 0.749-1.735 1.674-1.735s1.674 0.777 1.674 1.735z"></path>
<path fill="#f8d24e" d="M23.111 26.431c0 0.958-0.749 1.735-1.674 1.735s-1.674-0.777-1.674-1.735c0-0.958 0.749-1.735 1.674-1.735s1.674 0.777 1.674 1.735z"></path>
<path fill="#f8d24e" d="M27.297 23.828c0 0.958-0.749 1.735-1.674 1.735s-1.674-0.777-1.674-1.735c0-0.958 0.749-1.735 1.674-1.735s1.674 0.777 1.674 1.735z"></path>
<path fill="#f8d24e" d="M31.201 21.514c0 0.958-0.749 1.735-1.674 1.735s-1.674-0.777-1.674-1.735c0-0.958 0.749-1.735 1.674-1.735s1.674 0.777 1.674 1.735z"></path>
<path fill="#f8d24e" d="M25.623 29.034c0 0.958-0.749 1.735-1.674 1.735s-1.674-0.777-1.674-1.735c0-0.958 0.749-1.735 1.674-1.735s1.674 0.777 1.674 1.735z"></path>
<path fill="#f8d24e" d="M29.249 26.72c0 0.958-0.749 1.735-1.674 1.735s-1.674-0.777-1.674-1.735c0-0.958 0.749-1.735 1.674-1.735s1.674 0.777 1.674 1.735z"></path>
<path fill="#f8d24e" d="M33.434 24.117c0 0.958-0.749 1.735-1.674 1.735s-1.674-0.777-1.674-1.735c0-0.958 0.749-1.735 1.674-1.735s1.674 0.777 1.674 1.735z"></path>
<path fill="#f8d24e" d="M37.338 21.804c0 0.958-0.749 1.735-1.674 1.735s-1.674-0.777-1.674-1.735c0-0.958 0.749-1.735 1.674-1.735s1.674 0.777 1.674 1.735z"></path>
<path fill="#f8d24e" d="M32.876 29.034c0 0.958-0.749 1.735-1.674 1.735s-1.674-0.777-1.674-1.735c0-0.958 0.749-1.735 1.674-1.735s1.674 0.777 1.674 1.735z"></path>
<path fill="#f8d24e" d="M36.502 26.72c0 0.958-0.749 1.735-1.674 1.735s-1.674-0.777-1.674-1.735c0-0.958 0.749-1.735 1.674-1.735s1.674 0.777 1.674 1.735z"></path>
<path fill="#f8d24e" d="M40.686 24.117c0 0.958-0.749 1.735-1.674 1.735s-1.674-0.777-1.674-1.735c0-0.958 0.749-1.735 1.674-1.735s1.674 0.777 1.674 1.735z"></path>
<path fill="#f8d24e" d="M44.592 21.804c0 0.958-0.749 1.735-1.674 1.735s-1.674-0.777-1.674-1.735c0-0.958 0.749-1.735 1.674-1.735s1.674 0.777 1.674 1.735z"></path>
<path fill="#f8d24e" d="M39.011 28.745c0 0.958-0.749 1.735-1.674 1.735s-1.674-0.777-1.674-1.735c0-0.958 0.749-1.735 1.674-1.735s1.674 0.777 1.674 1.735z"></path>
<path fill="#f8d24e" d="M42.638 26.431c0 0.958-0.749 1.735-1.674 1.735s-1.674-0.777-1.674-1.735c0-0.958 0.749-1.735 1.674-1.735s1.674 0.777 1.674 1.735z"></path>
<path fill="#f8d24e" d="M46.823 23.828c0 0.958-0.749 1.735-1.674 1.735s-1.674-0.777-1.674-1.735c0-0.958 0.749-1.735 1.674-1.735s1.674 0.777 1.674 1.735z"></path>
<path fill="#f8d24e" d="M50.727 21.514c0 0.958-0.749 1.735-1.674 1.735s-1.674-0.777-1.674-1.735c0-0.958 0.749-1.735 1.674-1.735s1.674 0.777 1.674 1.735z"></path>
<path fill="#f8d24e" d="M45.985 28.455c0 0.958-0.749 1.735-1.674 1.735s-1.674-0.777-1.674-1.735c0-0.958 0.749-1.735 1.674-1.735s1.674 0.777 1.674 1.735z"></path>
<path fill="#f8d24e" d="M49.611 26.142c0 0.958-0.749 1.735-1.674 1.735s-1.674-0.777-1.674-1.735c0-0.958 0.749-1.735 1.674-1.735s1.674 0.777 1.674 1.735z"></path>
<path fill="#f8d24e" d="M53.796 23.539c0 0.958-0.749 1.735-1.674 1.735s-1.674-0.777-1.674-1.735c0-0.958 0.749-1.735 1.674-1.735s1.674 0.777 1.674 1.735z"></path>
<path fill="#f8d24e" d="M57.701 21.225c0 0.958-0.749 1.735-1.674 1.735s-1.674-0.777-1.674-1.735c0-0.958 0.749-1.735 1.674-1.735s1.674 0.777 1.674 1.735z"></path>
<path fill="#f8d24e" d="M52.401 20.936c0 0.958-0.749 1.735-1.674 1.735s-1.674-0.777-1.674-1.735c0-0.958 0.749-1.735 1.674-1.735s1.674 0.777 1.674 1.735z"></path>
<path fill="#f8d24e" d="M56.027 18.622c0 0.958-0.749 1.735-1.674 1.735s-1.674-0.777-1.674-1.735c0-0.958 0.749-1.735 1.674-1.735s1.674 0.777 1.674 1.735z"></path>
<path fill="#f8d24e" d="M60.212 16.019c0 0.958-0.749 1.735-1.674 1.735s-1.674-0.777-1.674-1.735c0-0.958 0.749-1.735 1.674-1.735s1.674 0.777 1.674 1.735z"></path>
<path fill="#f8d24e" d="M64.117 13.705c0 0.958-0.749 1.735-1.674 1.735s-1.674-0.777-1.674-1.735c0-0.958 0.749-1.735 1.674-1.735s1.674 0.777 1.674 1.735z"></path>
</svg>
