<!-- Generated by IcoMoon.io -->
<svg version="1.1" xmlns="http://www.w3.org/2000/svg" width="32" height="32" viewBox="0 0 32 32">
<title>watch</title>
<path fill="#fcfcfc" d="M29.897 13.806l-26.537-13.269c-0.358-0.166-0.752-0.24-1.146-0.214s-0.775 0.148-1.109 0.359c-0.334 0.21-0.61 0.5-0.803 0.845s-0.297 0.731-0.302 1.126v26.526c-0.003 0.405 0.098 0.804 0.294 1.158s0.48 0.652 0.825 0.865 0.738 0.333 1.143 0.349c0.405 0.016 0.807-0.073 1.167-0.258l26.469-13.269c0.392-0.197 0.722-0.499 0.952-0.872s0.352-0.803 0.352-1.242-0.122-0.869-0.352-1.242c-0.23-0.373-0.56-0.675-0.952-0.872v0.011z"></path>
</svg>
