<svg aria-hidden="true" style="position: absolute; width: 0; height: 0; overflow: hidden;" version="1.1" xmlns="http://www.w3.org/2000/svg" xmlns:xlink="http://www.w3.org/1999/xlink">
<defs>
<symbol id="icon-Arrow" viewBox="0 0 82 32">
<path d="M81.414 17.414c0.781-0.781 0.781-2.047 0-2.828l-12.728-12.728c-0.781-0.781-2.047-0.781-2.828 0s-0.781 2.047 0 2.828l11.314 11.314-11.314 11.314c-0.781 0.781-0.781 2.047 0 2.828s2.047 0.781 2.828 0l12.728-12.728zM0 18h80v-4h-80v4z"></path>
</symbol>
<symbol id="icon-arrow-white" viewBox="0 0 82 32">
<path d="M81.414 17.414c0.781-0.781 0.781-2.047 0-2.828l-12.728-12.728c-0.781-0.781-2.047-0.781-2.828 0s-0.781 2.047 0 2.828l11.314 11.314-11.314 11.314c-0.781 0.781-0.781 2.047 0 2.828s2.047 0.781 2.828 0l12.728-12.728zM0 18h80v-4h-80v4z"></path>
</symbol>
<symbol id="icon-button-arrow" viewBox="0 0 22 32">
<path d="M3.103 0.726c-0.45 0.45-0.703 1.060-0.703 1.697s0.253 1.247 0.703 1.697l11.88 11.88-11.88 11.88c-0.437 0.453-0.679 1.059-0.674 1.688s0.258 1.231 0.703 1.676c0.445 0.445 1.047 0.697 1.676 0.703s1.236-0.236 1.688-0.674l13.577-13.577c0.45-0.45 0.703-1.060 0.703-1.697s-0.253-1.247-0.703-1.697l-13.577-13.577c-0.45-0.45-1.060-0.703-1.697-0.703s-1.247 0.253-1.697 0.703z"></path>
</symbol>
<symbol id="icon-burger-menu" viewBox="0 0 32 32">
<path fill="#fff" style="fill: var(--color1, #fff)" d="M26.733 14.667h-21.467c-0.7 0-1.267 0.567-1.267 1.267v0.133c0 0.7 0.567 1.267 1.267 1.267h21.467c0.7 0 1.267-0.567 1.267-1.267v-0.133c0-0.7-0.567-1.267-1.267-1.267z"></path>
<path fill="#fff" style="fill: var(--color1, #fff)" d="M26.733 21.333h-21.467c-0.7 0-1.267 0.567-1.267 1.267v0.133c0 0.7 0.567 1.267 1.267 1.267h21.467c0.7 0 1.267-0.567 1.267-1.267v-0.133c0-0.7-0.567-1.267-1.267-1.267z"></path>
<path fill="#fff" style="fill: var(--color1, #fff)" d="M26.733 8h-21.467c-0.7 0-1.267 0.567-1.267 1.267v0.133c0 0.7 0.567 1.267 1.267 1.267h21.467c0.7 0 1.267-0.567 1.267-1.267v-0.133c0-0.7-0.567-1.267-1.267-1.267z"></path>
</symbol>
<symbol id="icon-github" viewBox="0 0 32 32">
<path fill="#84a178" style="fill: var(--color1, #84a178)" d="M16 0c-8.788 0-16 7.212-16 16 0 7.499 5.262 14.312 12.25 16v-5.293c-0.692 0.152-1.33 0.156-2.034-0.052-0.946-0.279-1.714-0.909-2.284-1.869-0.364-0.613-1.008-1.278-1.68-1.23l-0.165-1.868c1.453-0.124 2.711 0.886 3.457 2.14 0.332 0.558 0.713 0.884 1.203 1.029 0.473 0.14 0.982 0.072 1.574-0.137 0.149-1.186 0.692-1.63 1.102-2.255v-0.001c-4.167-0.622-5.828-2.832-6.488-4.578-0.874-2.317-0.405-5.212 1.14-7.041 0.030-0.036 0.084-0.129 0.063-0.194-0.708-2.139 0.155-3.909 0.187-4.097 0.817 0.242 0.95-0.243 3.551 1.337l0.449 0.27c0.188 0.112 0.129 0.048 0.317 0.034 1.086-0.295 2.23-0.458 3.358-0.472 1.136 0.015 2.273 0.178 3.404 0.484l0.145 0.015c-0.013-0.002 0.040-0.009 0.127-0.062 3.248-1.968 3.132-1.324 4.003-1.608 0.032 0.188 0.883 1.987 0.182 4.099-0.095 0.291 2.816 2.956 1.203 7.235-0.659 1.746-2.32 3.957-6.487 4.578v0.001c0.534 0.814 1.176 1.247 1.173 2.927v6.608c6.988-1.688 12.25-8.501 12.25-16 0-8.788-7.212-16-16-16v0z"></path>
</symbol>
<symbol id="icon-telegram" viewBox="0 0 44 32">
<path fill="#84a178" style="fill: var(--color1, #84a178)" d="M17.346 21.048l-0.675 8.86c0.966 0 1.384-0.387 1.885-0.852l4.527-4.038 9.381 6.412c1.72 0.895 2.933 0.424 3.397-1.477l6.158-26.929 0.002-0.002c0.546-2.374-0.92-3.302-2.596-2.72l-36.194 12.933c-2.47 0.895-2.433 2.18-0.42 2.762l9.253 2.686 21.494-12.552c1.011-0.625 1.931-0.279 1.175 0.346l-17.386 14.57z"></path>
</symbol>
<symbol id="icon-fasebook" viewBox="0 0 16 32">
<path fill="#84a178" style="fill: var(--color1, #84a178)" d="M14.143 15.972h-4.034v14.865h-6.112v-14.865h-2.907v-5.224h2.907v-3.381c0-2.418 1.142-6.203 6.166-6.203l4.527 0.019v5.071h-3.285c-0.539 0-1.296 0.271-1.296 1.424v3.075h4.567l-0.534 5.219z"></path>
</symbol>
<symbol id="icon-arrow-right-bold" viewBox="0 0 32 32">
<path d="M10.586 3.272c-0.375 0.375-0.586 0.884-0.586 1.414s0.211 1.039 0.586 1.414l9.9 9.9-9.9 9.9c-0.364 0.377-0.566 0.882-0.561 1.407s0.215 1.026 0.586 1.397c0.371 0.371 0.872 0.581 1.397 0.586s1.030-0.197 1.407-0.561l11.314-11.314c0.375-0.375 0.586-0.884 0.586-1.414s-0.211-1.039-0.586-1.414l-11.314-11.314c-0.375-0.375-0.884-0.586-1.414-0.586s-1.039 0.211-1.414 0.586z"></path>
</symbol>

<symbol id="icon-burger-desk" viewBox="0 0 32 32">
<path d="M26.733 14.667h-21.467c-0.7 0-1.267 0.567-1.267 1.267v0.133c0 0.7 0.567 1.267 1.267 1.267h21.467c0.7 0 1.267-0.567 1.267-1.267v-0.133c0-0.7-0.567-1.267-1.267-1.267z"></path>
<path d="M26.733 21.333h-21.467c-0.7 0-1.267 0.567-1.267 1.267v0.133c0 0.7 0.567 1.267 1.267 1.267h21.467c0.7 0 1.267-0.567 1.267-1.267v-0.133c0-0.7-0.567-1.267-1.267-1.267z"></path>
<path d="M26.733 8h-21.467c-0.7 0-1.267 0.567-1.267 1.267v0.133c0 0.7 0.567 1.267 1.267 1.267h21.467c0.7 0 1.267-0.567 1.267-1.267v-0.133c0-0.7-0.567-1.267-1.267-1.267z"></path>
</symbol>

<symbol id="icon-cow" viewBox="0 0 31 32">
<path d="M6.002 0.778c-0.254 0.219-0.979 1.733-1.24 2.559-0.31 1.024-0.416 1.791-0.373 2.852 0.056 1.514 0.437 2.661 1.275 3.861 0.218 0.314 0.394 0.585 0.394 0.607 0 0.015-0.134 0.029-0.303 0.029-0.726 0-2.085 0.241-3.128 0.556-1.655 0.497-2.627 1.367-2.627 2.34 0 0.344 0.31 0.929 0.641 1.228 0.641 0.578 2.043 1.126 3.55 1.389 0.521 0.095 2.071 0.256 2.416 0.263 0.063 0 0.085 0.336 0.085 1.44 0 0.951 0.035 1.689 0.106 2.142 0.254 1.623 1.043 3.341 2.085 4.555l0.359 0.417-0.24 0.387c-0.352 0.548-0.486 0.965-0.528 1.587-0.106 1.492 0.824 2.815 2.62 3.744 3.423 1.777 8.742 1.082 10.735-1.404 0.972-1.214 1.085-2.603 0.317-3.861l-0.239-0.388 0.43-0.519c0.803-0.965 1.324-1.93 1.719-3.151 0.331-1.038 0.458-2.040 0.458-3.627 0-0.724 0.021-1.323 0.056-1.323 0.324-0.007 1.881-0.175 2.374-0.263 1.515-0.263 2.888-0.804 3.55-1.389 0.331-0.3 0.641-0.885 0.641-1.228 0-1.082-1.099-1.96-3.142-2.486-0.669-0.175-1.93-0.387-2.543-0.424l-0.289-0.022 0.317-0.439c0.394-0.534 0.888-1.572 1.078-2.252 0.535-1.967 0.204-4.255-0.944-6.442-0.479-0.907-0.81-1.119-1.198-0.76-0.148 0.139-0.211 0.329-0.352 1.016-0.437 2.186-1.247 3.919-2.43 5.199l-0.521 0.57h-11.144l-0.465-0.505c-1.155-1.272-1.993-3.071-2.43-5.264-0.141-0.687-0.204-0.877-0.352-1.016-0.232-0.212-0.458-0.205-0.718 0.022zM6.903 5.114c0.373 0.819 0.838 1.587 1.388 2.296l0.437 0.563-0.458 0.344c-0.43 0.329-0.831 0.797-1.141 1.331l-0.134 0.241-0.338-0.461c-1.155-1.594-1.444-3.546-0.831-5.571 0.296-0.98 0.289-0.972 0.556-0.124 0.127 0.409 0.366 1.031 0.521 1.382zM25.239 3.571c0.289 0.87 0.402 1.565 0.402 2.464 0 1.331-0.352 2.457-1.092 3.466l-0.331 0.453-0.247-0.417c-0.289-0.512-0.782-1.046-1.233-1.353-0.19-0.124-0.338-0.249-0.338-0.263 0-0.022 0.134-0.19 0.303-0.373 0.782-0.87 1.62-2.435 2.036-3.78 0.127-0.417 0.254-0.76 0.275-0.76s0.127 0.256 0.225 0.563zM21.64 8.916c0.782 0.329 1.529 1.272 1.648 2.069 0.063 0.439 0.211 0.717 0.402 0.76 0.084 0.015 0.669 0.066 1.296 0.11 2.226 0.146 3.98 0.621 4.727 1.272 0.345 0.307 0.31 0.563-0.106 0.877-0.831 0.629-2.627 1.104-4.459 1.184-1.212 0.051-1.465 0.088-1.627 0.256-0.12 0.124-0.134 0.256-0.134 1.579 0 1.791-0.092 2.822-0.317 3.656-0.317 1.133-0.944 2.34-1.677 3.195l-0.303 0.351-0.627-0.373c-0.761-0.453-1.472-0.746-2.325-0.943-2.67-0.636-5.621-0.249-7.608 1.002l-0.458 0.293-0.289-0.344c-0.394-0.461-1.014-1.448-1.261-2.003-0.542-1.258-0.704-2.281-0.704-4.533 0-2.186 0.113-2.025-1.507-2.113-2.071-0.11-3.649-0.483-4.642-1.111-0.733-0.468-0.613-0.885 0.409-1.375 0.979-0.475 2.325-0.76 4.191-0.877 1.451-0.095 1.486-0.117 1.62-0.819 0.197-1.060 0.979-1.938 1.965-2.215 0.246-0.073 1.627-0.088 5.854-0.080l5.53 0.015 0.401 0.168zM17.681 24.051c1.726 0.424 3.015 1.214 3.571 2.193 0.134 0.227 0.19 0.461 0.218 0.819 0.028 0.446 0.007 0.556-0.162 0.921-0.782 1.66-3.656 2.756-6.579 2.508-3.515-0.293-5.826-2.252-4.917-4.175 0.493-1.038 2.163-2.033 3.924-2.325 0.289-0.044 0.578-0.095 0.634-0.11s0.69-0.015 1.409 0c0.979 0.022 1.451 0.066 1.902 0.168z"></path>
<path d="M10.693 12.579c-0.437 0.146-0.733 0.336-1.127 0.731-0.345 0.329-0.373 0.717-0.085 0.95 0.268 0.219 0.521 0.19 0.845-0.095 0.409-0.358 0.726-0.505 1.12-0.505 0.394-0.007 0.697 0.132 1.12 0.505 0.324 0.285 0.578 0.314 0.845 0.095 0.141-0.117 0.183-0.212 0.183-0.431 0-0.227-0.049-0.329-0.296-0.578-0.697-0.702-1.733-0.972-2.606-0.673z"></path>
<path d="M18.906 12.571c-0.451 0.168-1.029 0.548-1.261 0.833-0.225 0.278-0.232 0.592 0 0.826 0.232 0.249 0.514 0.234 0.852-0.044 0.831-0.687 1.451-0.709 2.219-0.073 0.197 0.168 0.423 0.3 0.493 0.3 0.345 0 0.627-0.307 0.627-0.673 0-0.234-0.585-0.775-1.113-1.031-0.585-0.285-1.282-0.336-1.817-0.139z"></path>
<path d="M11.714 26.106c-0.204 0.197-0.275 0.483-0.169 0.709 0.078 0.183 0.197 0.256 0.683 0.388 0.218 0.058 0.31 0.132 0.387 0.314 0.099 0.241 0.106 0.241 0.648 0.263l0.542 0.022v-0.205c-0.007-0.293-0.169-0.717-0.38-1.009-0.247-0.336-0.676-0.556-1.162-0.6-0.331-0.029-0.416-0.015-0.549 0.117z"></path>
<path d="M18.442 26.054c-0.352 0.095-0.859 0.57-1 0.943-0.063 0.168-0.127 0.468-0.134 0.665-0.014 0.314 0.014 0.388 0.183 0.541 0.416 0.366 0.965 0.080 0.965-0.504 0-0.285 0.211-0.483 0.585-0.556 0.394-0.073 0.535-0.234 0.542-0.607 0-0.49-0.437-0.68-1.141-0.483z"></path>
</symbol>

<symbol id="icon-weight" viewBox="0 0 26 32">
<path d="M10.622 0.547c-3.974 0.589-7.247 2.796-8.451 5.685-0.384 0.913-0.488 1.473-0.488 2.573 0.007 0.812 0.037 1.114 0.163 1.552 0.259 0.863 0.443 1.301 0.827 1.919l0.355 0.575-0.399 0.489c-3.154 3.924-3.502 9.444-0.872 13.793 0.983 1.632 2.586 3.234 4.152 4.169l0.465 0.273 12.743-0.108 0.303-0.165c1.056-0.597 2.549-1.926 3.383-3.004 1.256-1.639 2.076-3.551 2.423-5.621 0.118-0.74 0.118-2.932-0.007-3.63-0.377-2.149-1.182-3.989-2.453-5.621-0.244-0.309-0.436-0.568-0.436-0.589 0-0.014 0.133-0.237 0.288-0.489 0.362-0.575 0.687-1.315 0.864-1.962 0.199-0.719 0.199-2.516 0-3.234-0.709-2.552-2.837-4.679-5.843-5.851-0.842-0.331-2.283-0.683-3.213-0.798-0.864-0.101-2.999-0.079-3.804 0.043zM15.121 1.718c3.945 0.769 6.833 3.184 7.365 6.16 0.118 0.668 0.044 1.804-0.155 2.437-0.199 0.618-0.569 1.344-1.005 1.962-0.177 0.252-0.325 0.539-0.325 0.633s0.155 0.338 0.377 0.582c1.847 2.048 2.822 4.614 2.822 7.389-0.007 3.155-1.219 5.922-3.553 8.093-0.399 0.374-0.968 0.841-1.271 1.042l-0.554 0.374-12.211 0.050-0.473-0.302c-1.714-1.114-3.258-2.954-4.115-4.909-1.079-2.472-1.189-5.34-0.31-7.913 0.465-1.337 1.086-2.429 2.031-3.579 0.384-0.46 0.561-0.733 0.561-0.863 0-0.108-0.192-0.46-0.443-0.827-0.886-1.287-1.248-2.717-1.034-4.068 0.222-1.366 0.842-2.487 1.987-3.601 1.492-1.445 3.575-2.401 6.020-2.76 1.012-0.151 3.25-0.093 4.285 0.101z"></path>
<path d="M10.954 2.983c-3.029 0.496-5.4 2.178-6.176 4.384-0.177 0.496-0.207 0.69-0.207 1.402s0.030 0.906 0.207 1.402c0.111 0.316 0.318 0.755 0.458 0.977 0.384 0.618 0.554 0.64 1.315 0.18 1.138-0.697 2.445-1.208 3.804-1.488 0.916-0.187 2.674-0.259 3.671-0.144 1.559 0.18 3.25 0.74 4.602 1.538 0.384 0.223 0.776 0.41 0.872 0.41 0.561 0 1.278-1.617 1.278-2.875 0-2.796-2.674-5.189-6.464-5.786-0.805-0.129-2.585-0.129-3.361 0zM14.611 4.133c1.271 0.273 2.438 0.791 3.317 1.473 1.182 0.913 1.817 2.185 1.714 3.414-0.037 0.489-0.222 1.15-0.332 1.222-0.029 0.014-0.443-0.158-0.916-0.388-0.983-0.474-2.098-0.855-3.228-1.1-0.687-0.144-0.975-0.165-2.512-0.158-1.514 0-1.832 0.022-2.489 0.158-1.138 0.244-2.024 0.546-3.117 1.064-1.101 0.525-1.042 0.532-1.241-0.115-0.259-0.841-0.096-1.955 0.406-2.796 0.266-0.446 0.997-1.186 1.529-1.553 1.012-0.697 1.899-1.013 3.804-1.358 0.391-0.072 2.563 0.029 3.066 0.137z"></path>
<path d="M13.407 13.405c-0.207 0.259-0.207 0.503 0.007 0.712 0.14 0.137 0.281 0.173 0.79 0.208 0.99 0.072 1.935 0.359 2.785 0.848 0.606 0.359 1.529 1.229 1.943 1.854 0.613 0.898 1.034 2.185 1.034 3.134 0 0.331 0.029 0.431 0.185 0.575 0.236 0.237 0.547 0.237 0.776 0 0.163-0.165 0.17-0.208 0.125-0.913-0.207-3.479-3.184-6.382-6.744-6.577l-0.739-0.043-0.162 0.201z"></path>
</symbol>

<symbol id="icon-icecream" viewBox="0 0 16 32">
<path d="M8.108 0.107c0.080 0.214 0.241 1.252 0.241 1.573 0 0.797-0.295 1.54-0.837 2.122-0.449 0.482-0.897 0.75-1.975 1.185-1.198 0.489-1.694 0.783-2.256 1.339-0.569 0.569-0.904 1.192-1.024 1.921-0.134 0.797 0 1.359 0.408 1.68l0.208 0.161-0.328 0.208c-0.663 0.435-1.868 1.459-2.075 1.774-0.402 0.603-0.361 1.165 0.094 1.392l0.214 0.107-0.241 0.228c-0.361 0.341-0.435 0.576-0.382 1.192 0.033 0.408 0.020 0.629-0.074 0.964-0.114 0.435-0.114 0.442 0.033 0.75 0.147 0.301 0.562 0.683 0.937 0.843 0.181 0.080 0.187 0.107 0.228 0.723 0.020 0.355 0.054 1.486 0.080 2.517 0.020 1.031 0.067 1.975 0.107 2.089 0.033 0.121 0.161 0.281 0.274 0.361 0.388 0.268 0.656 0.556 0.83 0.89 0.194 0.382 0.408 1.319 1.058 4.559l0.455 2.276 0.281 0.268c0.536 0.529 1.56 0.77 3.247 0.77 1.694 0 2.705-0.234 3.24-0.763l0.288-0.274 0.415-2.109c0.917-4.613 0.997-4.867 1.714-5.436 0.221-0.181 0.435-0.402 0.475-0.502 0.047-0.114 0.094-0.991 0.127-2.316 0.027-1.178 0.067-2.343 0.094-2.591l0.040-0.449 0.435-0.328c0.549-0.422 0.763-0.803 0.763-1.393-0.007-0.696-0.462-1.459-1.292-2.142l-0.395-0.321 0.194-0.274c0.81-1.118 0.301-2.664-1.205-3.695l-0.455-0.315 0.167-0.174c0.743-0.797 0.864-3.173 0.241-4.827-0.375-0.984-1.232-2.055-2.283-2.845-0.515-0.388-1.935-1.245-2.062-1.245-0.027 0-0.027 0.047-0.007 0.107zM10.036 2.443c0.355 0.348 0.783 0.823 0.951 1.064 0.998 1.392 1.252 3.14 0.649 4.425-0.241 0.522-0.964 1.299-1.633 1.761-1.024 0.71-3.327 1.901-4.934 2.557-2.584 1.051-4.084 1.252-4.258 0.562-0.067-0.261 0.127-0.469 0.951-1.018 0.743-0.509 4.077-2.986 4.137-3.086 0.020-0.027-0.321 0.127-0.75 0.341-1.453 0.736-2.142 0.596-2.109-0.428 0.020-0.743 0.556-1.587 1.299-2.069 0.187-0.12 0.77-0.388 1.305-0.603 1.761-0.71 2.296-1.071 2.892-1.962 0.355-0.529 0.743-1.506 0.77-1.921 0.007-0.147 0.034-0.261 0.054-0.261s0.321 0.288 0.676 0.636zM11.864 10.049c0.489 0.274 0.998 0.743 1.218 1.111 0.388 0.663 0.187 1.325-0.649 2.169-0.911 0.924-2.464 1.808-4.171 2.37-1.573 0.515-3.079 0.756-5.235 0.83l-1.339 0.047 0.87 0.054c1.125 0.074 3.3 0.007 4.144-0.127 2.243-0.355 4.151-1.064 5.516-2.042 0.308-0.221 0.629-0.402 0.716-0.402 0.221 0 1.185 0.924 1.379 1.312 0.107 0.221 0.134 0.382 0.114 0.596-0.1 0.89-1.185 1.366-3.803 1.68-3.2 0.382-7.384 0.007-9.172-0.817-0.844-0.388-0.984-0.609-0.77-1.198 0.067-0.187 0.080-0.408 0.054-0.723-0.033-0.415-0.027-0.469 0.12-0.623 0.335-0.361 0.897-0.569 2.959-1.091 0.723-0.187 1.707-0.482 2.176-0.656 1.138-0.415 3.274-1.493 4.264-2.156 0.931-0.616 1.064-0.643 1.607-0.335zM2.974 18.243c1.406 0.408 2.651 0.529 4.967 0.482 1.741-0.034 2.812-0.141 4.358-0.415 0.315-0.053 0.589-0.1 0.623-0.1 0.074 0 0.053 2.571-0.027 3.247-0.087 0.716-0.281 1.272-0.489 1.406-0.214 0.141-1.285 0.288-2.718 0.368-2.939 0.161-5.958 0-6.895-0.375-0.509-0.207-0.562-0.475-0.569-2.959 0-1.654 0.013-1.881 0.1-1.848 0.054 0.020 0.348 0.107 0.649 0.194zM4.56 23.933c0.482 0.060 1.004 0.121 1.165 0.141l0.288 0.034-0.254 0.281c-0.328 0.355-0.83 1.064-1.011 1.426-0.208 0.415-0.274 0.442-0.582 0.274l-0.261-0.147-0.147-0.91c-0.080-0.495-0.167-0.971-0.187-1.051-0.060-0.174-0.12-0.174 0.991-0.047zM11.697 23.859c0 0.013-0.033 0.187-0.067 0.382-0.040 0.201-0.208 1.292-0.375 2.43-0.341 2.377-0.569 3.495-0.777 3.869-0.288 0.502-0.977 0.797-2.095 0.89-0.435 0.034-1.747-0.053-1.821-0.12-0.054-0.060 1.098-1.486 1.279-1.58 0.167-0.094 0.214-0.080 0.783 0.214 0.663 0.348 0.998 0.402 0.998 0.181s-0.174-0.435-0.603-0.73c-0.395-0.281-0.536-0.442-0.536-0.629 0-0.053 0.194-0.355 0.428-0.669s0.576-0.817 0.75-1.118l0.328-0.542 0.301 0.040c0.609 0.087 0.77 0.080 0.75-0.053-0.013-0.067-0.127-0.261-0.254-0.422-0.127-0.167-0.228-0.335-0.228-0.368 0-0.127 0.623-1.299 0.823-1.546 0.174-0.214 0.315-0.321 0.315-0.228zM7.513 24.395c0.335 0.221 1.593 1.312 1.674 1.446 0.034 0.060-1.259 2.082-1.513 2.37-0.027 0.034-0.167-0.033-0.308-0.141-0.141-0.114-0.663-0.475-1.165-0.803l-0.904-0.596 0.542-0.917c0.964-1.613 0.944-1.587 1.151-1.587 0.107 0 0.341 0.1 0.522 0.228zM10.050 24.636c-0.234 0.288-0.428 0.469-0.509 0.469-0.174 0-0.455-0.154-0.931-0.502l-0.395-0.288 0.79-0.047c0.428-0.020 0.844-0.047 0.917-0.060 0.536-0.087 0.536-0.080 0.127 0.428zM4.989 27.856c0.616 0.241 1.66 0.81 1.962 1.064 0.214 0.174 0.214 0.187 0.127 0.402-0.054 0.121-0.234 0.442-0.415 0.716-0.174 0.268-0.375 0.602-0.449 0.743-0.214 0.415-0.281 0.449-0.723 0.328-0.475-0.141-0.73-0.382-0.864-0.817-0.181-0.609-0.469-2.33-0.435-2.598 0.013-0.1 0.295-0.040 0.797 0.161z"></path>
</symbol>

<symbol id="icon-hr-dots" viewBox="0 0 195 32">
<path fill="#d9d9d9" style="fill: var(--color4, #d9d9d9)" d="M113.053 16c0 8.837-7.163 16-16 16s-16-7.163-16-16c0-8.837 7.163-16 16-16s16 7.163 16 16z"></path>
<path fill="#84a178" style="fill: var(--color3, #84a178)" d="M32 16c0 8.837-7.163 16-16 16s-16-7.163-16-16c0-8.837 7.163-16 16-16s16 7.163 16 16z"></path>
<path fill="#d9d9d9" style="fill: var(--color4, #d9d9d9)" d="M193.053 16c0 8.837-7.163 16-16 16s-16-7.163-16-16c0-8.837 7.163-16 16-16s16 7.163 16 16z"></path>
</symbol>

<symbol id="icon-logo" viewBox="0 0 30 32">
<path fill="#f8d24e" style="fill: var(--color2, #f8d24e)" d="M15.226 17.082c1.415-3.784-1.515-5.856-3.457-7.217-0.371-0.278-0.743-0.538-1.043-0.776-0.537-0.447-0.933-1.037-1.141-1.699s-0.217-1.37-0.029-2.037c0.019-0.070 0.019-0.144-0.001-0.213s-0.060-0.132-0.114-0.181c-0.054-0.049-0.121-0.083-0.193-0.097s-0.147-0.009-0.216 0.016c-0.654 0.255-1.262 0.612-1.801 1.058-0.518 0.393-0.937 0.898-1.226 1.476s-0.44 1.213-0.441 1.858c-0.366 0.285-0.69 0.618-0.962 0.992-0.499 0.672-0.75 1.492-0.709 2.324-0.595 0.538-1.038 1.22-1.286 1.977s-0.292 1.566-0.129 2.345c-0.237 0.141-0.42 0.355-0.521 0.608s-0.116 0.533-0.041 0.795c0.075 0.262 0.235 0.493 0.456 0.657s0.49 0.251 0.767 0.25h0.026v2.152c0 0.218 0.088 0.428 0.245 0.582s0.369 0.241 0.591 0.241h0.65l1.058 9.040c0.022 0.201 0.119 0.387 0.272 0.523s0.351 0.21 0.556 0.209h4.404c0.206-0 0.404-0.075 0.557-0.21s0.251-0.321 0.275-0.522l1.058-9.040h0.65c0.222 0 0.434-0.087 0.591-0.241s0.245-0.364 0.245-0.582v-2.152h0.026c0.336 0 0.658-0.131 0.895-0.366s0.371-0.551 0.371-0.883c0.002-0.165-0.030-0.329-0.094-0.482s-0.158-0.291-0.277-0.408l-0.011 0.004zM5.695 10.216c0.535 1.98 2.599 2.76 4.482 3.455 0.051 0.031 0.107 0.050 0.166 0.057s0.119 0 0.175-0.018c0.056-0.019 0.108-0.049 0.151-0.090s0.076-0.090 0.098-0.145c0.021-0.055 0.030-0.113 0.026-0.172s-0.021-0.115-0.050-0.166c-0.029-0.051-0.069-0.095-0.117-0.129s-0.104-0.057-0.162-0.068c-2.027-0.758-3.939-1.464-4.084-3.488-0.034-0.556 0.072-1.112 0.308-1.619s0.596-0.947 1.047-1.284c0.282-0.232 0.586-0.437 0.906-0.615-0.021 0.253-0.021 0.508 0 0.761 0.043 0.58 0.204 1.146 0.473 1.663s0.641 0.976 1.094 1.349c0.308 0.26 0.691 0.527 1.114 0.813 0.976 0.692 2.087 1.464 2.792 2.511 0.376 0.537 0.611 1.158 0.681 1.807s-0.024 1.305-0.277 1.908h-1.641c-3.383 0-7.27-0.922-8.039-3.506-0.152-0.532-0.151-1.095 0.004-1.626s0.457-1.009 0.873-1.379l-0.019-0.018zM8.74 22.693l1.24 1.222-1.24 1.222-1.24-1.23 1.24-1.215zM11.584 25.903l-1.025 1.010-1.24-1.222 1.24-1.219 1.077 1.058-0.052 0.373zM8.74 28.706l-1.24-1.222 1.24-1.222 1.24 1.222-1.24 1.222zM8.172 25.698l-1.24 1.222-1.032-1.017-0.045-0.366 1.077-1.058 1.24 1.219zM6.36 27.484l-0.249 0.245-0.063-0.556 0.312 0.311zM6.23 28.735l0.702-0.692 1.363 1.354c0.007 0.027 0.016 0.054 0.026 0.081h-2.005l-0.085-0.743zM10.552 28.044l0.702 0.692-0.085 0.732h-2.061l1.444-1.424zM11.369 27.729l-0.249-0.245 0.316-0.311-0.067 0.556zM11.74 24.53l-0.62-0.622 0.787-0.776-0.167 1.398zM10.548 23.352l-1.177-1.157h2.354l-1.177 1.157zM6.928 23.352l-1.177-1.157h2.354l-1.177 1.157zM10.938 31.169h-4.4c-0.007-0.001-0.013-0.004-0.018-0.008s-0.008-0.011-0.008-0.017l-0.104-0.878h4.663l-0.1 0.878c-0.001 0.007-0.004 0.014-0.010 0.018s-0.012 0.007-0.020 0.007h-0.004zM14.343 18.418h-1.292c-0.056-0.005-0.113 0.001-0.166 0.019s-0.103 0.046-0.145 0.083c-0.042 0.037-0.075 0.083-0.098 0.134s-0.035 0.106-0.035 0.161c0 0.056 0.012 0.111 0.035 0.161s0.056 0.096 0.098 0.134c0.042 0.037 0.091 0.066 0.145 0.083s0.11 0.024 0.166 0.019h0.46v2.152c-0.001 0.007-0.004 0.014-0.010 0.018s-0.012 0.007-0.020 0.007h-9.494c-0.007 0-0.014-0.003-0.020-0.007s-0.009-0.011-0.010-0.018v-2.152h7.355c0.1-0.009 0.193-0.055 0.261-0.129s0.105-0.169 0.105-0.268-0.037-0.195-0.105-0.268c-0.068-0.073-0.161-0.119-0.261-0.129h-8.168c-0.064 0.006-0.128-0.002-0.188-0.022s-0.116-0.053-0.163-0.095c-0.047-0.043-0.085-0.094-0.111-0.152s-0.039-0.12-0.039-0.183c0-0.063 0.013-0.125 0.039-0.183s0.063-0.109 0.111-0.152c0.047-0.043 0.103-0.075 0.163-0.095s0.125-0.028 0.188-0.022h0.843c0.1-0.009 0.193-0.055 0.261-0.129s0.105-0.169 0.105-0.268-0.037-0.195-0.105-0.268c-0.068-0.073-0.161-0.119-0.261-0.129h-0.743c-0.106-0.557-0.089-1.13 0.051-1.68s0.399-1.063 0.759-1.505c0.26 0.798 0.928 1.889 2.599 2.756 1.571 0.809 3.65 1.222 6.178 1.222h1.485c0.064-0.006 0.128 0.002 0.188 0.022s0.116 0.053 0.163 0.095c0.047 0.043 0.085 0.094 0.111 0.152s0.039 0.12 0.039 0.183c0 0.063-0.013 0.125-0.039 0.183s-0.063 0.109-0.111 0.152c-0.047 0.043-0.103 0.075-0.163 0.095s-0.125 0.028-0.188 0.022h0.026z"></path>
<path fill="#f8d24e" style="fill: var(--color2, #f8d24e)" d="M16.964 29.152l-0.292 0.449 0.006 0.004 0.287-0.453zM20.113 29.303l0.535-0.012-0.014-0.62-0.611 0.104 0.090 0.528zM20.15 30.951l0.136 0.518 0.409-0.108-0.009-0.422-0.535 0.012zM16.017 31.030l0.12-0.522-0.003-0.001-0.117 0.523zM13.977 30.119l0.347-0.408-0.001-0.001-0.346 0.409zM13.24 28.446l0.536 0.003v-0.003h-0.536zM13.496 27.274l-0.481-0.236-0 0.001 0.481 0.236zM15.139 25.872l0.19 0.501 0.002-0.001-0.192-0.5zM20.401 25.736l0.534 0.042 0.035-0.452-0.44-0.109-0.129 0.52zM20.27 27.415l-0.1 0.526 0.587 0.111 0.046-0.596-0.534-0.042zM18.842 26.728c-0.804 0-1.48 0.086-1.973 0.303-0.253 0.111-0.483 0.268-0.651 0.489-0.173 0.228-0.255 0.494-0.255 0.774h1.071c0-0.063 0.015-0.098 0.038-0.127 0.028-0.037 0.090-0.095 0.228-0.155 0.288-0.126 0.784-0.212 1.542-0.212v-1.071zM15.963 28.294c0 0.551 0.247 1.006 0.709 1.307l0.585-0.897c-0.159-0.104-0.222-0.221-0.222-0.409h-1.071zM16.678 29.604c0.438 0.277 1.015 0.381 1.662 0.381v-1.071c-0.559 0-0.899-0.095-1.089-0.215l-0.573 0.905zM18.34 29.986c0.636 0 1.257-0.051 1.863-0.154l-0.179-1.056c-0.545 0.092-1.106 0.139-1.684 0.139v1.071zM19.578 29.315l0.037 1.648 1.071-0.024-0.037-1.648-1.071 0.024zM20.013 30.433c-0.612 0.161-1.288 0.244-2.029 0.244v1.071c0.821 0 1.589-0.092 2.302-0.279l-0.273-1.036zM17.984 30.677c-0.757 0-1.369-0.059-1.847-0.169l-0.24 1.044c0.582 0.134 1.281 0.197 2.087 0.197v-1.071zM16.134 30.507c-0.511-0.114-0.88-0.236-1.127-0.356l-0.47 0.963c0.354 0.173 0.814 0.316 1.363 0.439l0.234-1.045zM15.008 30.151c-0.264-0.129-0.491-0.276-0.684-0.44l-0.693 0.817c0.267 0.227 0.571 0.421 0.907 0.585l0.47-0.963zM14.323 29.71c-0.364-0.308-0.55-0.709-0.548-1.262l-1.071-0.005c-0.004 0.842 0.301 1.556 0.927 2.086l0.691-0.818zM13.776 28.446c0-0.36 0.071-0.669 0.202-0.936l-0.962-0.471c-0.211 0.43-0.311 0.903-0.311 1.407h1.071zM13.977 27.51c0.244-0.495 0.674-0.88 1.352-1.137l-0.38-1.002c-0.884 0.336-1.549 0.885-1.933 1.666l0.961 0.473zM15.331 26.372c0.713-0.274 1.508-0.414 2.392-0.414v-1.071c-0.999 0-1.926 0.159-2.776 0.485l0.384 1zM17.723 25.958c0.902 0 1.751 0.1 2.549 0.298l0.258-1.040c-0.889-0.221-1.826-0.33-2.807-0.33v1.071zM19.867 25.695l-0.131 1.679 1.068 0.083 0.131-1.679-1.068-0.083zM20.37 26.889c-0.557-0.106-1.068-0.161-1.528-0.161v1.071c0.377 0 0.818 0.046 1.328 0.142l0.2-1.052zM25.596 27.745l-0.003 0.536 0.544 0.003-0.006-0.544-0.536 0.006zM25.366 27.049l-0.364 0.393 0.005 0.004 0.36-0.397zM24.032 27.101l0.371 0.386 0.004-0.004-0.375-0.383zM23.708 27.734l-0.529-0.087-0.102 0.619 0.627 0.003 0.003-0.536zM27.646 30.59l0.324 0.427 0.193-0.146 0.018-0.241-0.534-0.040zM26.49 31.019l-0.115-0.523-0.003 0.001 0.118 0.522zM22.473 30.873l-0.183 0.504 0.004 0.002 0.178-0.505zM21.558 30.386l-0.332 0.42 0.003 0.003 0.003 0.003 0.326-0.425zM20.946 29.617l-0.48 0.237 0.001 0.002 0.479-0.24zM21.573 26.369l0.356 0.4 0-0-0.356-0.4zM26.469 25.788l0.214-0.491-0.005-0.002-0.209 0.493zM27.699 26.918l-0.482 0.234 0.001 0.003 0.48-0.237zM27.908 27.855l0.534 0.039 0.001-0.019v-0.019h-0.536zM27.845 28.718l-0.003 0.536 0.501 0.002 0.036-0.499-0.534-0.039zM23.603 28.697l0.003-0.536-0.699-0.003 0.178 0.676 0.518-0.137zM24.21 29.445l-0.264 0.466 0.002 0.001 0.261-0.468zM27.463 29.262v-0.536h-0.107l-0.099 0.041 0.206 0.494zM27.746 29.262l0.534 0.040 0.043-0.576h-0.577v0.536zM26.131 27.739c-0.004-0.387-0.093-0.803-0.406-1.087l-0.72 0.794c-0.006-0.006 0.006 0.001 0.021 0.047 0.016 0.049 0.032 0.131 0.033 0.257l1.071-0.011zM25.73 26.657c-0.281-0.261-0.65-0.347-1.013-0.347v1.071c0.209 0 0.272 0.050 0.284 0.061l0.729-0.785zM24.717 26.309c-0.399 0-0.77 0.125-1.060 0.409l0.75 0.765c0.058-0.057 0.144-0.103 0.31-0.103v-1.071zM23.661 26.715c-0.264 0.253-0.423 0.572-0.482 0.932l1.057 0.174c0.024-0.149 0.082-0.252 0.167-0.333l-0.742-0.773zM23.705 28.27l1.888 0.011 0.006-1.071-1.888-0.011-0.006 1.071zM27.323 30.163c-0.117 0.089-0.404 0.213-0.948 0.333l0.23 1.046c0.565-0.124 1.049-0.286 1.364-0.525l-0.647-0.854zM26.372 30.497c-0.519 0.117-1.018 0.175-1.498 0.175v1.071c0.566 0 1.145-0.068 1.735-0.201l-0.237-1.045zM24.874 30.672c-0.505 0-0.92-0.024-1.252-0.068l-0.143 1.062c0.394 0.053 0.86 0.078 1.395 0.078v-1.071zM23.622 30.603c-0.325-0.044-0.649-0.122-0.971-0.236l-0.357 1.010c0.389 0.137 0.784 0.233 1.184 0.287l0.143-1.062zM22.656 30.369c-0.313-0.114-0.568-0.251-0.772-0.408l-0.652 0.85c0.305 0.234 0.66 0.421 1.059 0.565l0.365-1.007zM21.89 29.966c-0.184-0.146-0.34-0.338-0.465-0.588l-0.958 0.479c0.189 0.377 0.44 0.697 0.759 0.949l0.665-0.84zM21.426 29.38c-0.113-0.228-0.18-0.521-0.18-0.898h-1.071c0 0.502 0.090 0.966 0.291 1.372l0.96-0.475zM21.246 28.482c0-0.377 0.068-0.71 0.196-1.006l-0.983-0.427c-0.192 0.443-0.285 0.923-0.285 1.432h1.071zM21.442 27.477c0.135-0.311 0.3-0.541 0.487-0.708l-0.712-0.8c-0.322 0.287-0.572 0.653-0.758 1.081l0.983 0.427zM21.93 26.769c0.576-0.513 1.454-0.811 2.719-0.811v-1.071c-1.42 0-2.592 0.334-3.432 1.083l0.713 0.8zM24.649 25.958c0.568 0 1.103 0.108 1.611 0.324l0.418-0.986c-0.643-0.273-1.321-0.409-2.029-0.409v1.071zM26.255 26.279c0.474 0.207 0.78 0.5 0.962 0.873l0.963-0.468c-0.307-0.631-0.82-1.091-1.497-1.387l-0.428 0.982zM27.218 27.155c0.1 0.203 0.154 0.433 0.154 0.699h1.071c0-0.417-0.086-0.811-0.265-1.173l-0.96 0.474zM27.374 27.816l-0.063 0.863 1.068 0.078 0.063-0.863-1.068-0.078zM27.848 28.182l-4.242-0.021-0.005 1.071 4.242 0.021 0.005-1.071zM23.085 28.833c0.125 0.475 0.431 0.835 0.861 1.078l0.527-0.933c-0.212-0.12-0.31-0.258-0.352-0.418l-1.036 0.273zM23.948 29.912c0.434 0.243 0.978 0.34 1.585 0.34v-1.071c-0.509 0-0.848-0.084-1.062-0.204l-0.523 0.935zM25.533 30.252c0.651 0 1.367-0.176 2.136-0.496l-0.412-0.989c-0.689 0.287-1.26 0.414-1.724 0.414v1.071zM27.463 29.797h0.282v-1.071h-0.282v1.071zM27.212 29.222l-0.099 1.329 1.068 0.080 0.099-1.329-1.068-0.080z"></path>
</symbol>

<symbol id="icon-close" viewBox="0 0 32 32">
<path fill="#fcfcfc" style="fill: var(--color5, #fcfcfc)" d="M28.614 1.13l-12.614 12.614-12.614-12.614c-0.303-0.278-0.702-0.427-1.113-0.418s-0.803 0.176-1.094 0.467c-0.291 0.291-0.458 0.683-0.467 1.094s0.141 0.81 0.418 1.113l12.608 12.614-12.611 12.611c-0.154 0.147-0.277 0.323-0.362 0.518s-0.13 0.405-0.133 0.618 0.037 0.424 0.117 0.621c0.080 0.197 0.199 0.376 0.349 0.527s0.329 0.27 0.526 0.35 0.408 0.121 0.621 0.118c0.213-0.002 0.423-0.047 0.618-0.132s0.372-0.208 0.519-0.361l12.618-12.611 12.614 12.614c0.303 0.278 0.702 0.428 1.113 0.418s0.803-0.176 1.094-0.467c0.291-0.291 0.458-0.683 0.467-1.094s-0.141-0.81-0.418-1.113l-12.614-12.614 12.614-12.618c0.154-0.147 0.277-0.323 0.362-0.518s0.13-0.405 0.133-0.618c0.003-0.213-0.037-0.424-0.117-0.621s-0.199-0.376-0.349-0.527c-0.15-0.151-0.329-0.27-0.526-0.35s-0.408-0.121-0.621-0.118-0.423 0.047-0.618 0.132c-0.195 0.085-0.372 0.208-0.519 0.362v0.003z"></path>
</symbol>

<symbol id="icon-watch" viewBox="0 0 32 32">
<path fill="#fcfcfc" style="fill: var(--color5, #fcfcfc)" d="M29.897 13.806l-26.537-13.269c-0.358-0.166-0.752-0.24-1.146-0.214s-0.775 0.148-1.109 0.359c-0.334 0.21-0.61 0.5-0.803 0.845s-0.297 0.731-0.302 1.126v26.526c-0.003 0.405 0.098 0.804 0.294 1.158s0.48 0.652 0.825 0.865 0.738 0.333 1.143 0.349c0.405 0.016 0.807-0.073 1.167-0.258l26.469-13.269c0.392-0.197 0.722-0.499 0.952-0.872s0.352-0.803 0.352-1.242-0.122-0.869-0.352-1.242c-0.23-0.373-0.56-0.675-0.952-0.872v0.011z"></path>
</symbol>

<symbol id="icon-swipe-up1" viewBox="0 0 32 32">
<path d="M22.086 20.914l2.829-2.829-8.914-8.914-8.914 8.914 2.828 2.828 6.086-6.086z"></path>
</symbol>

<symbol id="icon-swipe-up2" viewBox="0 0 32 32">
<path d="M16 0c-8.837 0-16 7.163-16 16s7.163 16 16 16 16-7.163 16-16c0-8.837-7.163-16-16-16zM23.402 18.21c-0.737 0.701-1.903 0.672-2.603-0.064l-2.957-3.108v7.362c0 1.018-0.824 1.842-1.842 1.842s-1.841-0.824-1.841-1.842v-7.362l-2.957 3.108c-0.7 0.736-1.867 0.766-2.603 0.064-0.737-0.701-0.767-1.866-0.065-2.603l7.253-7.625c0.055-0.058 0.132-0.091 0.212-0.091s0.157 0.033 0.212 0.091l7.254 7.625c0.702 0.737 0.673 1.902-0.065 2.603z"></path>
</symbol>

<symbol id="icon-swipe-up3" viewBox="0 0 32 32">
<path d="M16 1l-15 15h9v16h12v-16h9z"></path>
</symbol>

<symbol id="icon-swipe-up4" viewBox="0 0 32 32">
<path d="M0 16c0 8.837 7.163 16 16 16s16-7.163 16-16-7.163-16-16-16-16 7.163-16 16zM29 16c0 7.18-5.82 13-13 13s-13-5.82-13-13 5.82-13 13-13 13 5.82 13 13z"></path>
<path d="M22.086 20.914l2.829-2.829-8.914-8.914-8.914 8.914 2.828 2.828 6.086-6.086z"></path>
</symbol>
<!--HERO DOTS Tel-->
<svg width="320" height="50" viewBox="0 0 320 50" fill="none" xmlns="http://www.w3.org/2000/svg">
<ellipse cx="241.993" cy="46.2757" rx="2.60019" ry="2.77865" fill="#F8D24E"/>
<ellipse cx="247.628" cy="42.5708" rx="2.60019" ry="2.77865" fill="#F8D24E"/>
<ellipse cx="254.126" cy="38.4026" rx="2.60019" ry="2.77865" fill="#F8D24E"/>
<ellipse cx="260.195" cy="34.6976" rx="2.60019" ry="2.77865" fill="#F8D24E"/>
<ellipse cx="256.726" cy="44.4233" rx="2.60019" ry="2.77865" fill="#F8D24E"/>
<ellipse cx="262.361" cy="40.7185" rx="2.60019" ry="2.77865" fill="#F8D24E"/>
<ellipse cx="268.86" cy="36.5505" rx="2.60019" ry="2.77865" fill="#F8D24E"/>
<ellipse cx="274.929" cy="32.8459" rx="2.60019" ry="2.77865" fill="#F8D24E"/>
<ellipse cx="269.296" cy="43.0343" rx="2.60019" ry="2.77865" fill="#F8D24E"/>
<ellipse cx="274.93" cy="39.3289" rx="2.60019" ry="2.77865" fill="#F8D24E"/>
<ellipse cx="281.43" cy="35.1611" rx="2.60019" ry="2.77865" fill="#F8D24E"/>
<ellipse cx="287.496" cy="31.4569" rx="2.60019" ry="2.77865" fill="#F8D24E"/>
<ellipse cx="281.428" cy="41.182" rx="2.60019" ry="2.77865" fill="#F8D24E"/>
<ellipse cx="287.061" cy="37.4768" rx="2.60019" ry="2.77865" fill="#F8D24E"/>
<ellipse cx="293.561" cy="33.3089" rx="2.60019" ry="2.77865" fill="#F8D24E"/>
<ellipse cx="299.629" cy="29.6041" rx="2.60019" ry="2.77865" fill="#F8D24E"/>
<ellipse cx="285.331" cy="46.2757" rx="2.60019" ry="2.77865" fill="#F8D24E"/>
<ellipse cx="290.965" cy="42.5708" rx="2.60019" ry="2.77865" fill="#F8D24E"/>
<ellipse cx="298.765" cy="46.7387" rx="2.60019" ry="2.77865" fill="#F8D24E"/>
<ellipse cx="297.465" cy="38.4026" rx="2.60019" ry="2.77865" fill="#F8D24E"/>
<ellipse cx="305.266" cy="42.5708" rx="2.60019" ry="2.77865" fill="#F8D24E"/>
<ellipse cx="311.334" cy="46.7387" rx="2.60019" ry="2.77865" fill="#F8D24E"/>
<ellipse cx="303.533" cy="34.6976" rx="2.60019" ry="2.77865" fill="#F8D24E"/>
<ellipse cx="311.334" cy="38.8654" rx="2.60019" ry="2.77865" fill="#F8D24E"/>
<ellipse cx="317.401" cy="43.0338" rx="2.60019" ry="2.77865" fill="#F8D24E"/>
<ellipse cx="215.559" cy="15.7111" rx="2.60019" ry="2.77865" fill="#F8D24E"/>
<ellipse cx="221.192" cy="12.0058" rx="2.60019" ry="2.77865" fill="#F8D24E"/>
<ellipse cx="227.694" cy="7.83822" rx="2.60019" ry="2.77865" fill="#F8D24E"/>
<ellipse cx="233.759" cy="4.13339" rx="2.60019" ry="2.77865" fill="#F8D24E"/>
<ellipse cx="204.724" cy="15.247" rx="2.60019" ry="2.77865" fill="#F8D24E"/>
<ellipse cx="210.357" cy="11.5424" rx="2.60019" ry="2.77865" fill="#F8D24E"/>
<ellipse cx="216.857" cy="7.37485" rx="2.60019" ry="2.77865" fill="#F8D24E"/>
<ellipse cx="222.924" cy="3.67001" rx="2.60019" ry="2.77865" fill="#F8D24E"/>
<ellipse cx="228.992" cy="46.2757" rx="2.60019" ry="2.77865" fill="#F8D24E"/>
<ellipse cx="234.625" cy="42.5708" rx="2.60019" ry="2.77865" fill="#F8D24E"/>
<ellipse cx="241.125" cy="38.4026" rx="2.60019" ry="2.77865" fill="#F8D24E"/>
<ellipse cx="247.193" cy="34.6976" rx="2.60019" ry="2.77865" fill="#F8D24E"/>
<ellipse cx="222.058" cy="43.4975" rx="2.60019" ry="2.77865" fill="#F8D24E"/>
<ellipse cx="227.692" cy="39.7926" rx="2.60019" ry="2.77865" fill="#F8D24E"/>
<ellipse cx="234.192" cy="35.6244" rx="2.60019" ry="2.77865" fill="#F8D24E"/>
<ellipse cx="240.259" cy="31.9196" rx="2.60019" ry="2.77865" fill="#F8D24E"/>
<ellipse cx="224.659" cy="33.7721" rx="2.60019" ry="2.77865" fill="#F8D24E"/>
<ellipse cx="230.292" cy="30.0672" rx="2.60019" ry="2.77865" fill="#F8D24E"/>
<ellipse cx="236.794" cy="25.899" rx="2.60019" ry="2.77865" fill="#F8D24E"/>
<ellipse cx="242.86" cy="22.1944" rx="2.60019" ry="2.77865" fill="#F8D24E"/>
<ellipse cx="224.659" cy="17.5631" rx="2.60019" ry="2.77865" fill="#F8D24E"/>
<ellipse cx="230.292" cy="13.8579" rx="2.60019" ry="2.77865" fill="#F8D24E"/>
<ellipse cx="236.794" cy="9.69015" rx="2.60019" ry="2.77865" fill="#F8D24E"/>
<ellipse cx="242.86" cy="5.9852" rx="2.60019" ry="2.77865" fill="#F8D24E"/>
<ellipse cx="223.358" cy="26.3628" rx="2.60019" ry="2.77865" fill="#F8D24E"/>
<ellipse cx="228.993" cy="22.6573" rx="2.60019" ry="2.77865" fill="#F8D24E"/>
<ellipse cx="235.492" cy="18.4896" rx="2.60019" ry="2.77865" fill="#F8D24E"/>
<ellipse cx="241.559" cy="14.7849" rx="2.60019" ry="2.77865" fill="#F8D24E"/>
<ellipse cx="196.056" cy="12.9317" rx="2.60019" ry="2.77865" fill="#F8D24E"/>
<ellipse cx="201.691" cy="9.22677" rx="2.60019" ry="2.77865" fill="#F8D24E"/>
<ellipse cx="208.191" cy="5.05917" rx="2.60019" ry="2.77865" fill="#F8D24E"/>
<path d="M207.757 15.7104C209.193 15.7104 210.358 14.4663 210.358 12.9317C210.358 11.3971 209.193 10.1531 207.757 10.1531C206.321 10.1531 205.157 11.3971 205.157 12.9317C205.157 14.4663 206.321 15.7104 207.757 15.7104Z" fill="#F8D24E"/>
<ellipse rx="2.64285" ry="2.81563" transform="matrix(0.986896 -0.161679 0.142011 0.989912 85.5813 33.9821)" fill="#F8D24E"/>
<ellipse rx="2.64285" ry="2.81563" transform="matrix(0.986896 -0.161679 0.142011 0.989912 90.6995 29.3392)" fill="#F8D24E"/>
<ellipse rx="2.64285" ry="2.81563" transform="matrix(0.986896 -0.161679 0.142011 0.989912 96.6204 24.0905)" fill="#F8D24E"/>
<ellipse rx="2.64285" ry="2.81563" transform="matrix(0.986896 -0.161679 0.142011 0.989912 102.173 19.3773)" fill="#F8D24E"/>
<ellipse cx="2.71977" cy="33.5514" rx="2.71977" ry="2.81979" fill="#F8D24E"/>
<ellipse cx="8.61137" cy="29.7916" rx="2.71977" ry="2.81979" fill="#F8D24E"/>
<ellipse cx="15.4131" cy="25.562" rx="2.71977" ry="2.81979" fill="#F8D24E"/>
<ellipse cx="21.7579" cy="21.8017" rx="2.71977" ry="2.81979" fill="#F8D24E"/>
<ellipse cx="5.44047" cy="40.6005" rx="2.71977" ry="2.81979" fill="#F8D24E"/>
<ellipse cx="11.3331" cy="36.8408" rx="2.71977" ry="2.81979" fill="#F8D24E"/>
<ellipse cx="18.1338" cy="32.611" rx="2.71977" ry="2.81979" fill="#F8D24E"/>
<ellipse cx="24.4786" cy="28.8513" rx="2.71977" ry="2.81979" fill="#F8D24E"/>
<ellipse cx="12.2383" cy="44.3598" rx="2.71977" ry="2.81979" fill="#F8D24E"/>
<ellipse cx="18.1319" cy="40.6004" rx="2.71977" ry="2.81979" fill="#F8D24E"/>
<ellipse cx="24.9307" cy="36.3707" rx="2.71977" ry="2.81979" fill="#F8D24E"/>
<ellipse cx="31.2764" cy="32.611" rx="2.71977" ry="2.81979" fill="#F8D24E"/>
<ellipse cx="19.9434" cy="46.7105" rx="2.71977" ry="2.81979" fill="#F8D24E"/>
<ellipse cx="25.836" cy="42.95" rx="2.71977" ry="2.81979" fill="#F8D24E"/>
<ellipse cx="32.6377" cy="38.7208" rx="2.71977" ry="2.81979" fill="#F8D24E"/>
<ellipse cx="38.9815" cy="34.961" rx="2.71977" ry="2.81979" fill="#F8D24E"/>
<ellipse cx="29.917" cy="47.1805" rx="2.71977" ry="2.81979" fill="#F8D24E"/>
<ellipse cx="35.8096" cy="43.4207" rx="2.71977" ry="2.81979" fill="#F8D24E"/>
<ellipse cx="42.6104" cy="39.1908" rx="2.71977" ry="2.81979" fill="#F8D24E"/>
<ellipse cx="48.9551" cy="35.4315" rx="2.71977" ry="2.81979" fill="#F8D24E"/>
<ellipse cx="41.7041" cy="47.1803" rx="2.71977" ry="2.81979" fill="#F8D24E"/>
<ellipse cx="47.5957" cy="43.4205" rx="2.71977" ry="2.81979" fill="#F8D24E"/>
<ellipse cx="54.3956" cy="39.1905" rx="2.71977" ry="2.81979" fill="#F8D24E"/>
<ellipse cx="60.7422" cy="35.4312" rx="2.71977" ry="2.81979" fill="#F8D24E"/>
<ellipse cx="51.6739" cy="46.7103" rx="2.71977" ry="2.81979" fill="#F8D24E"/>
<ellipse cx="57.5665" cy="42.95" rx="2.71977" ry="2.81979" fill="#F8D24E"/>
<ellipse cx="64.3672" cy="38.7208" rx="2.71977" ry="2.81979" fill="#F8D24E"/>
<ellipse cx="70.712" cy="34.961" rx="2.71977" ry="2.81979" fill="#F8D24E"/>
<ellipse cx="63.0059" cy="46.24" rx="2.71977" ry="2.81979" fill="#F8D24E"/>
<ellipse cx="68.8985" cy="42.4804" rx="2.71977" ry="2.81979" fill="#F8D24E"/>
<ellipse cx="75.6993" cy="38.2509" rx="2.71977" ry="2.81979" fill="#F8D24E"/>
<ellipse cx="82.044" cy="34.4909" rx="2.71977" ry="2.81979" fill="#F8D24E"/>
<ellipse cx="73.4317" cy="34.0211" rx="2.71977" ry="2.81979" fill="#F8D24E"/>
<ellipse cx="79.3243" cy="30.2614" rx="2.71977" ry="2.81979" fill="#F8D24E"/>
<ellipse cx="86.1241" cy="26.0317" rx="2.71977" ry="2.81979" fill="#F8D24E"/>
<ellipse cx="92.4698" cy="22.2717" rx="2.71977" ry="2.81979" fill="#F8D24E"/>
</svg>
<!--HERO DOTS Mob-->
<svg width="330" height="52" viewBox="0 0 330 52" fill="none" xmlns="http://www.w3.org/2000/svg">
<g clip-path="url(#clip0_27651_226)">
<ellipse cx="249.555" cy="48.1269" rx="2.68145" ry="2.8898" fill="#F8D24E"/>
<ellipse cx="255.365" cy="44.2736" rx="2.68145" ry="2.8898" fill="#F8D24E"/>
<ellipse cx="262.067" cy="39.9389" rx="2.68145" ry="2.8898" fill="#F8D24E"/>
<ellipse cx="268.325" cy="36.0856" rx="2.68145" ry="2.8898" fill="#F8D24E"/>
<ellipse cx="264.748" cy="46.2003" rx="2.68145" ry="2.8898" fill="#F8D24E"/>
<ellipse cx="270.558" cy="42.3473" rx="2.68145" ry="2.8898" fill="#F8D24E"/>
<ellipse cx="277.262" cy="38.0126" rx="2.68145" ry="2.8898" fill="#F8D24E"/>
<ellipse cx="283.519" cy="34.1598" rx="2.68145" ry="2.8898" fill="#F8D24E"/>
<ellipse cx="277.711" cy="44.7558" rx="2.68145" ry="2.8898" fill="#F8D24E"/>
<ellipse cx="283.521" cy="40.9023" rx="2.68145" ry="2.8898" fill="#F8D24E"/>
<ellipse cx="290.225" cy="36.5675" rx="2.68145" ry="2.8898" fill="#F8D24E"/>
<ellipse cx="296.479" cy="32.7152" rx="2.68145" ry="2.8898" fill="#F8D24E"/>
<ellipse cx="290.222" cy="42.8293" rx="2.68145" ry="2.8898" fill="#F8D24E"/>
<ellipse cx="296.031" cy="38.9757" rx="2.68145" ry="2.8898" fill="#F8D24E"/>
<ellipse cx="302.735" cy="34.6413" rx="2.68145" ry="2.8898" fill="#F8D24E"/>
<ellipse cx="308.992" cy="30.7882" rx="2.68145" ry="2.8898" fill="#F8D24E"/>
<ellipse cx="294.246" cy="48.1269" rx="2.68145" ry="2.8898" fill="#F8D24E"/>
<ellipse cx="300.056" cy="44.2736" rx="2.68145" ry="2.8898" fill="#F8D24E"/>
<ellipse cx="308.1" cy="48.6083" rx="2.68145" ry="2.8898" fill="#F8D24E"/>
<ellipse cx="306.761" cy="39.9389" rx="2.68145" ry="2.8898" fill="#F8D24E"/>
<ellipse cx="314.805" cy="44.2736" rx="2.68145" ry="2.8898" fill="#F8D24E"/>
<ellipse cx="321.061" cy="48.6083" rx="2.68145" ry="2.8898" fill="#F8D24E"/>
<ellipse cx="313.016" cy="36.0856" rx="2.68145" ry="2.8898" fill="#F8D24E"/>
<ellipse cx="321.061" cy="40.4201" rx="2.68145" ry="2.8898" fill="#F8D24E"/>
<ellipse cx="327.318" cy="44.7553" rx="2.68145" ry="2.8898" fill="#F8D24E"/>
<ellipse cx="222.296" cy="16.3395" rx="2.68145" ry="2.8898" fill="#F8D24E"/>
<ellipse cx="228.104" cy="12.486" rx="2.68145" ry="2.8898" fill="#F8D24E"/>
<ellipse cx="234.81" cy="8.15176" rx="2.68145" ry="2.8898" fill="#F8D24E"/>
<ellipse cx="241.064" cy="4.29874" rx="2.68145" ry="2.8898" fill="#F8D24E"/>
<ellipse cx="211.121" cy="15.8568" rx="2.68145" ry="2.8898" fill="#F8D24E"/>
<ellipse cx="216.93" cy="12.0041" rx="2.68145" ry="2.8898" fill="#F8D24E"/>
<ellipse cx="223.634" cy="7.66983" rx="2.68145" ry="2.8898" fill="#F8D24E"/>
<ellipse cx="229.889" cy="3.8168" rx="2.68145" ry="2.8898" fill="#F8D24E"/>
<ellipse cx="236.147" cy="48.1269" rx="2.68145" ry="2.8898" fill="#F8D24E"/>
<ellipse cx="241.956" cy="44.2736" rx="2.68145" ry="2.8898" fill="#F8D24E"/>
<ellipse cx="248.66" cy="39.9389" rx="2.68145" ry="2.8898" fill="#F8D24E"/>
<ellipse cx="254.917" cy="36.0856" rx="2.68145" ry="2.8898" fill="#F8D24E"/>
<ellipse cx="228.997" cy="45.2375" rx="2.68145" ry="2.8898" fill="#F8D24E"/>
<ellipse cx="234.806" cy="41.3842" rx="2.68145" ry="2.8898" fill="#F8D24E"/>
<ellipse cx="241.51" cy="37.0492" rx="2.68145" ry="2.8898" fill="#F8D24E"/>
<ellipse cx="247.766" cy="33.1964" rx="2.68145" ry="2.8898" fill="#F8D24E"/>
<ellipse cx="231.679" cy="35.123" rx="2.68145" ry="2.8898" fill="#F8D24E"/>
<ellipse cx="237.487" cy="31.2699" rx="2.68145" ry="2.8898" fill="#F8D24E"/>
<ellipse cx="244.193" cy="26.935" rx="2.68145" ry="2.8898" fill="#F8D24E"/>
<ellipse cx="250.448" cy="23.0822" rx="2.68145" ry="2.8898" fill="#F8D24E"/>
<ellipse cx="231.679" cy="18.2655" rx="2.68145" ry="2.8898" fill="#F8D24E"/>
<ellipse cx="237.487" cy="14.412" rx="2.68145" ry="2.8898" fill="#F8D24E"/>
<ellipse cx="244.193" cy="10.0778" rx="2.68145" ry="2.8898" fill="#F8D24E"/>
<ellipse cx="250.448" cy="6.22452" rx="2.68145" ry="2.8898" fill="#F8D24E"/>
<ellipse cx="230.338" cy="27.4174" rx="2.68145" ry="2.8898" fill="#F8D24E"/>
<ellipse cx="236.148" cy="23.5636" rx="2.68145" ry="2.8898" fill="#F8D24E"/>
<ellipse cx="242.851" cy="19.2292" rx="2.68145" ry="2.8898" fill="#F8D24E"/>
<ellipse cx="249.107" cy="15.3764" rx="2.68145" ry="2.8898" fill="#F8D24E"/>
<ellipse cx="202.182" cy="13.4491" rx="2.68145" ry="2.8898" fill="#F8D24E"/>
<ellipse cx="207.993" cy="9.59585" rx="2.68145" ry="2.8898" fill="#F8D24E"/>
<ellipse cx="214.697" cy="5.26163" rx="2.68145" ry="2.8898" fill="#F8D24E"/>
<path d="M214.25 16.3389C215.731 16.3389 216.931 15.0451 216.931 13.4491C216.931 11.8531 215.731 10.5593 214.25 10.5593C212.769 10.5593 211.568 11.8531 211.568 13.4491C211.568 15.0451 212.769 16.3389 214.25 16.3389Z" fill="#F8D24E"/>
<ellipse rx="2.726" ry="2.92772" transform="matrix(0.98669 -0.163017 0.140842 0.990092 97.2554 35.3413)" fill="#F8D24E"/>
<ellipse rx="2.726" ry="2.92772" transform="matrix(0.98669 -0.163017 0.140842 0.990092 102.534 30.5124)" fill="#F8D24E"/>
<ellipse rx="2.726" ry="2.92772" transform="matrix(0.98669 -0.163017 0.140842 0.990092 108.64 25.0539)" fill="#F8D24E"/>
<ellipse rx="2.726" ry="2.92772" transform="matrix(0.98669 -0.163017 0.140842 0.990092 114.366 20.1521)" fill="#F8D24E"/>
<ellipse cx="11.7198" cy="33.5512" rx="2.71977" ry="2.81979" fill="#F8D24E"/>
<ellipse cx="17.6114" cy="29.7915" rx="2.71977" ry="2.81979" fill="#F8D24E"/>
<ellipse cx="24.4131" cy="25.562" rx="2.71977" ry="2.81979" fill="#F8D24E"/>
<ellipse cx="30.7579" cy="21.8017" rx="2.71977" ry="2.81979" fill="#F8D24E"/>
<ellipse cx="14.4405" cy="40.6003" rx="2.71977" ry="2.81979" fill="#F8D24E"/>
<ellipse cx="20.3331" cy="36.8405" rx="2.71977" ry="2.81979" fill="#F8D24E"/>
<ellipse cx="27.1338" cy="32.6108" rx="2.71977" ry="2.81979" fill="#F8D24E"/>
<ellipse cx="33.4786" cy="28.851" rx="2.71977" ry="2.81979" fill="#F8D24E"/>
<ellipse cx="21.2383" cy="44.3596" rx="2.71977" ry="2.81979" fill="#F8D24E"/>
<ellipse cx="27.1319" cy="40.6001" rx="2.71977" ry="2.81979" fill="#F8D24E"/>
<ellipse cx="33.9307" cy="36.3706" rx="2.71977" ry="2.81979" fill="#F8D24E"/>
<ellipse cx="40.2764" cy="32.6108" rx="2.71977" ry="2.81979" fill="#F8D24E"/>
<ellipse cx="28.9434" cy="46.7104" rx="2.71977" ry="2.81979" fill="#F8D24E"/>
<ellipse cx="34.836" cy="42.9499" rx="2.71977" ry="2.81979" fill="#F8D24E"/>
<ellipse cx="41.6377" cy="38.7207" rx="2.71977" ry="2.81979" fill="#F8D24E"/>
<ellipse cx="47.9815" cy="34.9609" rx="2.71977" ry="2.81979" fill="#F8D24E"/>
<ellipse cx="38.917" cy="47.1804" rx="2.71977" ry="2.81979" fill="#F8D24E"/>
<ellipse cx="44.8096" cy="43.4206" rx="2.71977" ry="2.81979" fill="#F8D24E"/>
<ellipse cx="51.6104" cy="39.1906" rx="2.71977" ry="2.81979" fill="#F8D24E"/>
<ellipse cx="57.9551" cy="35.4314" rx="2.71977" ry="2.81979" fill="#F8D24E"/>
<ellipse cx="50.7041" cy="47.1801" rx="2.71977" ry="2.81979" fill="#F8D24E"/>
<ellipse cx="56.5957" cy="43.4204" rx="2.71977" ry="2.81979" fill="#F8D24E"/>
<ellipse cx="63.3956" cy="39.1904" rx="2.71977" ry="2.81979" fill="#F8D24E"/>
<ellipse cx="69.7422" cy="35.4311" rx="2.71977" ry="2.81979" fill="#F8D24E"/>
<ellipse cx="60.6739" cy="46.7102" rx="2.71977" ry="2.81979" fill="#F8D24E"/>
<ellipse cx="66.5665" cy="42.9499" rx="2.71977" ry="2.81979" fill="#F8D24E"/>
<ellipse cx="73.3672" cy="38.7207" rx="2.71977" ry="2.81979" fill="#F8D24E"/>
<ellipse cx="79.712" cy="34.9609" rx="2.71977" ry="2.81979" fill="#F8D24E"/>
<ellipse cx="72.0059" cy="46.2397" rx="2.71977" ry="2.81979" fill="#F8D24E"/>
<ellipse cx="77.8985" cy="42.4802" rx="2.71977" ry="2.81979" fill="#F8D24E"/>
<ellipse cx="84.6993" cy="38.2507" rx="2.71977" ry="2.81979" fill="#F8D24E"/>
<ellipse cx="91.044" cy="34.4907" rx="2.71977" ry="2.81979" fill="#F8D24E"/>
<ellipse cx="82.4317" cy="34.021" rx="2.71977" ry="2.81979" fill="#F8D24E"/>
<ellipse cx="88.3243" cy="30.2612" rx="2.71977" ry="2.81979" fill="#F8D24E"/>
<ellipse cx="95.1241" cy="26.0315" rx="2.71977" ry="2.81979" fill="#F8D24E"/>
<ellipse cx="101.47" cy="22.2714" rx="2.71977" ry="2.81979" fill="#F8D24E"/>
</g>
<defs>
<clipPath id="clip0_27651_226">
<rect width="330" height="52" fill="white"/>
</clipPath>
</defs>
</svg>
<!--HERO DOTS tablet-->
<svg width="768" height="69" viewBox="0 0 768 69" fill="none" xmlns="http://www.w3.org/2000/svg">
<ellipse cx="655.854" cy="63.7614" rx="4.00522" ry="3.98792" fill="#F8D24E"/>
<ellipse cx="663.865" cy="58.7765" rx="4.00522" ry="3.98792" fill="#F8D24E"/>
<ellipse cx="673.877" cy="52.7946" rx="4.00522" ry="3.98792" fill="#F8D24E"/>
<ellipse cx="681.888" cy="47.8097" rx="4.00522" ry="3.98792" fill="#F8D24E"/>
<ellipse cx="676.881" cy="61.7675" rx="4.00522" ry="3.98792" fill="#F8D24E"/>
<ellipse cx="684.892" cy="56.7826" rx="4.00522" ry="3.98792" fill="#F8D24E"/>
<ellipse cx="694.905" cy="50.8007" rx="4.00522" ry="3.98792" fill="#F8D24E"/>
<ellipse cx="702.915" cy="45.8158" rx="4.00522" ry="3.98792" fill="#F8D24E"/>
<ellipse cx="694.905" cy="59.7733" rx="4.00522" ry="3.98792" fill="#F8D24E"/>
<ellipse cx="702.915" cy="54.7885" rx="4.00522" ry="3.98792" fill="#F8D24E"/>
<ellipse cx="712.928" cy="48.8065" rx="4.00522" ry="3.98792" fill="#F8D24E"/>
<ellipse cx="720.939" cy="43.8217" rx="4.00522" ry="3.98792" fill="#F8D24E"/>
<ellipse cx="712.928" cy="56.7826" rx="4.00522" ry="3.98792" fill="#F8D24E"/>
<ellipse cx="720.939" cy="51.7977" rx="4.00522" ry="3.98792" fill="#F8D24E"/>
<ellipse cx="730.952" cy="45.8158" rx="4.00522" ry="3.98792" fill="#F8D24E"/>
<ellipse cx="738.962" cy="40.8309" rx="4.00522" ry="3.98792" fill="#F8D24E"/>
<ellipse cx="717.935" cy="63.7614" rx="4.00522" ry="3.98792" fill="#F8D24E"/>
<ellipse cx="725.945" cy="58.7765" rx="4.00522" ry="3.98792" fill="#F8D24E"/>
<ellipse cx="736.96" cy="64.7584" rx="4.00522" ry="3.98792" fill="#F8D24E"/>
<ellipse cx="735.958" cy="52.7946" rx="4.00522" ry="3.98792" fill="#F8D24E"/>
<ellipse cx="746.972" cy="58.7765" rx="4.00522" ry="3.98792" fill="#F8D24E"/>
<ellipse cx="755.984" cy="64.7584" rx="4.00522" ry="3.98792" fill="#F8D24E"/>
<ellipse cx="743.969" cy="47.8097" rx="4.00522" ry="3.98792" fill="#F8D24E"/>
<ellipse cx="755.984" cy="53.7916" rx="4.00522" ry="3.98792" fill="#F8D24E"/>
<ellipse cx="763.995" cy="59.7736" rx="4.00522" ry="3.98792" fill="#F8D24E"/>
<ellipse cx="617.805" cy="21.8883" rx="4.00522" ry="3.98792" fill="#F8D24E"/>
<ellipse cx="625.815" cy="16.9034" rx="4.00522" ry="3.98792" fill="#F8D24E"/>
<ellipse cx="635.828" cy="10.9215" rx="4.00522" ry="3.98792" fill="#F8D24E"/>
<ellipse cx="643.838" cy="5.93665" rx="4.00522" ry="3.98792" fill="#F8D24E"/>
<ellipse cx="601.784" cy="20.8912" rx="4.00522" ry="3.98792" fill="#F8D24E"/>
<ellipse cx="609.794" cy="15.9064" rx="4.00522" ry="3.98792" fill="#F8D24E"/>
<ellipse cx="619.807" cy="9.92444" rx="4.00522" ry="3.98792" fill="#F8D24E"/>
<ellipse cx="627.818" cy="4.93958" rx="4.00522" ry="3.98792" fill="#F8D24E"/>
<ellipse cx="636.829" cy="63.7614" rx="4.00522" ry="3.98792" fill="#F8D24E"/>
<ellipse cx="644.84" cy="58.7765" rx="4.00522" ry="3.98792" fill="#F8D24E"/>
<ellipse cx="654.853" cy="52.7946" rx="4.00522" ry="3.98792" fill="#F8D24E"/>
<ellipse cx="662.863" cy="47.8097" rx="4.00522" ry="3.98792" fill="#F8D24E"/>
<ellipse cx="626.816" cy="60.7704" rx="4.00522" ry="3.98792" fill="#F8D24E"/>
<ellipse cx="634.826" cy="55.7855" rx="4.00522" ry="3.98792" fill="#F8D24E"/>
<ellipse cx="644.84" cy="49.8036" rx="4.00522" ry="3.98792" fill="#F8D24E"/>
<ellipse cx="652.85" cy="44.8187" rx="4.00522" ry="3.98792" fill="#F8D24E"/>
<ellipse cx="630.822" cy="46.8126" rx="4.00522" ry="3.98792" fill="#F8D24E"/>
<ellipse cx="638.832" cy="41.8278" rx="4.00522" ry="3.98792" fill="#F8D24E"/>
<ellipse cx="648.845" cy="35.8458" rx="4.00522" ry="3.98792" fill="#F8D24E"/>
<ellipse cx="656.855" cy="30.861" rx="4.00522" ry="3.98792" fill="#F8D24E"/>
<ellipse cx="630.822" cy="23.8822" rx="4.00522" ry="3.98792" fill="#F8D24E"/>
<ellipse cx="638.832" cy="18.8973" rx="4.00522" ry="3.98792" fill="#F8D24E"/>
<ellipse cx="648.845" cy="12.9154" rx="4.00522" ry="3.98792" fill="#F8D24E"/>
<ellipse cx="656.855" cy="7.93054" rx="4.00522" ry="3.98792" fill="#F8D24E"/>
<ellipse cx="628.819" cy="36.8429" rx="4.00522" ry="3.98792" fill="#F8D24E"/>
<ellipse cx="636.829" cy="31.858" rx="4.00522" ry="3.98792" fill="#F8D24E"/>
<ellipse cx="646.842" cy="25.8761" rx="4.00522" ry="3.98792" fill="#F8D24E"/>
<ellipse cx="654.853" cy="20.8912" rx="4.00522" ry="3.98792" fill="#F8D24E"/>
<ellipse cx="589.267" cy="17.9003" rx="3.50456" ry="3.98792" fill="#F8D24E"/>
<ellipse cx="597.278" cy="12.9154" rx="3.50456" ry="3.98792" fill="#F8D24E"/>
<ellipse cx="607.291" cy="6.93347" rx="3.50456" ry="3.98792" fill="#F8D24E"/>
<path d="M606.289 21.8882C608.225 21.8882 609.794 20.1027 609.794 17.9003C609.794 15.6978 608.225 13.9124 606.289 13.9124C604.354 13.9124 602.785 15.6978 602.785 17.9003C602.785 20.1027 604.354 21.8882 606.289 21.8882Z" fill="#F8D24E"/>
<ellipse cx="4.00522" cy="59" rx="4.00522" ry="4" fill="#F8D24E"/>
<ellipse cx="12.0155" cy="54" rx="4.00522" ry="4" fill="#F8D24E"/>
<ellipse cx="22.0287" cy="48" rx="4.00522" ry="4" fill="#F8D24E"/>
<ellipse cx="30.0389" cy="43" rx="4.00522" ry="4" fill="#F8D24E"/>
<ellipse cx="52.0677" cy="61" rx="4.00522" ry="4" fill="#F8D24E"/>
<ellipse cx="60.0785" cy="56" rx="4.00522" ry="4" fill="#F8D24E"/>
<ellipse cx="70.0912" cy="50" rx="4.00522" ry="4" fill="#F8D24E"/>
<ellipse cx="78.1019" cy="45" rx="4.00522" ry="4" fill="#F8D24E"/>
<ellipse cx="70.592" cy="58" rx="3.50456" ry="4" fill="#F8D24E"/>
<ellipse cx="78.6022" cy="53" rx="3.50456" ry="4" fill="#F8D24E"/>
<ellipse cx="87.6139" cy="48" rx="3.50456" ry="4" fill="#F8D24E"/>
<ellipse cx="96.6257" cy="43" rx="3.50456" ry="4" fill="#F8D24E"/>
<ellipse cx="106.639" cy="35" rx="3.50456" ry="4" fill="#F8D24E"/>
<ellipse cx="85.6115" cy="39" rx="3.50456" ry="4" fill="#F8D24E"/>
<ellipse cx="34.0443" cy="61" rx="4.00522" ry="4" fill="#F8D24E"/>
<ellipse cx="42.0545" cy="56" rx="4.00522" ry="4" fill="#F8D24E"/>
<ellipse cx="52.0677" cy="50" rx="4.00522" ry="4" fill="#F8D24E"/>
<ellipse cx="60.0785" cy="45" rx="4.00522" ry="4" fill="#F8D24E"/>
<ellipse cx="18.0233" cy="60" rx="4.00522" ry="4" fill="#F8D24E"/>
<ellipse cx="26.034" cy="55" rx="4.00522" ry="4" fill="#F8D24E"/>
<ellipse cx="36.0467" cy="49" rx="4.00522" ry="4" fill="#F8D24E"/>
<ellipse cx="44.0575" cy="44" rx="4.00522" ry="4" fill="#F8D24E"/>
</svg>
<!--HERO DOTS desktop-->
<svg width="1200" height="384" viewBox="0 0 1200 384" fill="none" xmlns="http://www.w3.org/2000/svg">
<ellipse cx="447.193" cy="32.7546" rx="5.85842" ry="6.2439" fill="#F8D24E"/>
<ellipse cx="459.886" cy="24.4294" rx="5.85842" ry="6.2439" fill="#F8D24E"/>
<ellipse cx="474.532" cy="15.0635" rx="5.85842" ry="6.2439" fill="#F8D24E"/>
<ellipse cx="488.202" cy="6.73829" rx="5.85842" ry="6.2439" fill="#F8D24E"/>
<ellipse cx="428.641" cy="54.6082" rx="5.85842" ry="6.2439" fill="#F8D24E"/>
<ellipse cx="441.335" cy="46.283" rx="5.85842" ry="6.2439" fill="#F8D24E"/>
<ellipse cx="455.98" cy="36.9172" rx="5.85842" ry="6.2439" fill="#F8D24E"/>
<ellipse cx="469.65" cy="28.592" rx="5.85842" ry="6.2439" fill="#F8D24E"/>
<ellipse cx="400.325" cy="55.6489" rx="5.85842" ry="6.2439" fill="#F8D24E"/>
<ellipse cx="413.019" cy="47.3237" rx="5.85842" ry="6.2439" fill="#F8D24E"/>
<ellipse cx="427.665" cy="37.9578" rx="5.85842" ry="6.2439" fill="#F8D24E"/>
<ellipse cx="441.335" cy="29.6326" rx="5.85842" ry="6.2439" fill="#F8D24E"/>
<ellipse cx="384.703" cy="79.5837" rx="5.85842" ry="6.2439" fill="#F8D24E"/>
<ellipse cx="397.396" cy="71.2586" rx="5.85842" ry="6.2439" fill="#F8D24E"/>
<ellipse cx="412.042" cy="61.8928" rx="5.85842" ry="6.2439" fill="#F8D24E"/>
<ellipse cx="425.712" cy="53.5676" rx="5.85842" ry="6.2439" fill="#F8D24E"/>
<ellipse cx="372.986" cy="101.438" rx="5.85842" ry="6.2439" fill="#F8D24E"/>
<ellipse cx="385.679" cy="93.1123" rx="5.85842" ry="6.2439" fill="#F8D24E"/>
<ellipse cx="400.325" cy="83.7463" rx="5.85842" ry="6.2439" fill="#F8D24E"/>
<ellipse cx="413.995" cy="75.4212" rx="5.85842" ry="6.2439" fill="#F8D24E"/>
<ellipse rx="5.85842" ry="6.2439" transform="matrix(0.999999 0.00156002 -0.00137335 0.999999 364.208 123.3)" fill="#F8D24E"/>
<ellipse rx="5.85842" ry="6.2439" transform="matrix(0.999999 0.00156002 -0.00137335 0.999999 376.912 114.995)" fill="#F8D24E"/>
<ellipse rx="5.85842" ry="6.2439" transform="matrix(0.999999 0.00156002 -0.00137335 0.999999 391.572 105.652)" fill="#F8D24E"/>
<ellipse rx="5.85842" ry="6.2439" transform="matrix(0.999999 0.00156002 -0.00137335 0.999999 405.253 97.348)" fill="#F8D24E"/>
<ellipse rx="5.85842" ry="6.2439" transform="matrix(0.999999 0.00156002 -0.00137335 0.999999 240.228 160.806)" fill="#F8D24E"/>
<ellipse rx="5.85842" ry="6.2439" transform="matrix(0.999999 0.00156002 -0.00137335 0.999999 253.909 152.502)" fill="#F8D24E"/>
<ellipse rx="5.85842" ry="6.2439" transform="matrix(0.999999 0.00156002 -0.00137335 0.999999 325.151 132.666)" fill="#F8D24E"/>
<ellipse rx="5.85842" ry="6.2439" transform="matrix(0.999999 0.00156002 -0.00137335 0.999999 337.856 124.361)" fill="#F8D24E"/>
<ellipse rx="5.85842" ry="6.2439" transform="matrix(0.999999 0.00156002 -0.00137335 0.999999 352.514 115.018)" fill="#F8D24E"/>
<ellipse rx="5.85842" ry="6.2439" transform="matrix(0.999999 0.00156002 -0.00137335 0.999999 366.196 106.713)" fill="#F8D24E"/>
<ellipse cx="241.171" cy="142.023" rx="5.85842" ry="6.2439" fill="#F8D24E"/>
<ellipse cx="254.841" cy="133.698" rx="5.85842" ry="6.2439" fill="#F8D24E"/>
<ellipse cx="273.393" cy="124.332" rx="5.85842" ry="6.2439" fill="#F8D24E"/>
<ellipse cx="286.086" cy="116.007" rx="5.85842" ry="6.2439" fill="#F8D24E"/>
<ellipse cx="300.732" cy="106.64" rx="5.85842" ry="6.2439" fill="#F8D24E"/>
<ellipse cx="314.402" cy="98.3152" rx="5.85842" ry="6.2439" fill="#F8D24E"/>
<ellipse cx="298.779" cy="136.819" rx="5.85842" ry="6.2439" fill="#F8D24E"/>
<ellipse cx="311.473" cy="128.494" rx="5.85842" ry="6.2439" fill="#F8D24E"/>
<ellipse cx="326.119" cy="119.129" rx="5.85842" ry="6.2439" fill="#F8D24E"/>
<ellipse cx="339.789" cy="110.803" rx="5.85842" ry="6.2439" fill="#F8D24E"/>
<ellipse cx="300.732" cy="120.169" rx="5.85842" ry="6.2439" fill="#F8D24E"/>
<ellipse cx="313.426" cy="111.844" rx="5.85842" ry="6.2439" fill="#F8D24E"/>
<ellipse cx="328.072" cy="102.478" rx="5.85842" ry="6.2439" fill="#F8D24E"/>
<ellipse cx="341.741" cy="94.1528" rx="5.85842" ry="6.2439" fill="#F8D24E"/>
<ellipse cx="247.03" cy="126.413" rx="5.85842" ry="6.2439" fill="#F8D24E"/>
<ellipse cx="259.723" cy="118.088" rx="5.85842" ry="6.2439" fill="#F8D24E"/>
<ellipse cx="274.37" cy="108.722" rx="5.85842" ry="6.2439" fill="#F8D24E"/>
<ellipse cx="288.039" cy="100.397" rx="5.85842" ry="6.2439" fill="#F8D24E"/>
<ellipse cx="5.85842" cy="358.478" rx="5.85842" ry="6.2439" fill="#F8D24E"/>
<ellipse cx="18.5513" cy="350.153" rx="5.85842" ry="6.2439" fill="#F8D24E"/>
<ellipse cx="33.1978" cy="340.787" rx="5.85842" ry="6.2439" fill="#F8D24E"/>
<ellipse cx="46.8672" cy="332.462" rx="5.85842" ry="6.2439" fill="#F8D24E"/>
<ellipse cx="80.065" cy="361.6" rx="5.85842" ry="6.2439" fill="#F8D24E"/>
<ellipse cx="92.7578" cy="353.275" rx="5.85842" ry="6.2439" fill="#F8D24E"/>
<ellipse cx="107.404" cy="343.909" rx="5.85842" ry="6.2439" fill="#F8D24E"/>
<ellipse cx="121.074" cy="335.584" rx="5.85842" ry="6.2439" fill="#F8D24E"/>
<ellipse cx="110.334" cy="357.438" rx="5.85842" ry="6.2439" fill="#F8D24E"/>
<ellipse cx="123.027" cy="349.112" rx="5.85842" ry="6.2439" fill="#F8D24E"/>
<ellipse cx="137.673" cy="339.746" rx="5.85842" ry="6.2439" fill="#F8D24E"/>
<ellipse cx="151.343" cy="331.421" rx="5.85842" ry="6.2439" fill="#F8D24E"/>
<ellipse cx="165.989" cy="318.933" rx="5.85842" ry="6.2439" fill="#F8D24E"/>
<ellipse cx="134.744" cy="326.218" rx="5.85842" ry="6.2439" fill="#F8D24E"/>
<ellipse cx="1024.25" cy="376.672" rx="5.85842" ry="6.23878" fill="#F8D24E"/>
<ellipse cx="1036.94" cy="368.353" rx="5.85842" ry="6.23878" fill="#F8D24E"/>
<ellipse cx="1051.59" cy="358.995" rx="5.85842" ry="6.23878" fill="#F8D24E"/>
<ellipse cx="1065.26" cy="350.677" rx="5.85842" ry="6.23878" fill="#F8D24E"/>
<ellipse cx="1057.44" cy="372.513" rx="5.85842" ry="6.23878" fill="#F8D24E"/>
<ellipse cx="1070.14" cy="364.194" rx="5.85842" ry="6.23878" fill="#F8D24E"/>
<ellipse cx="1084.78" cy="354.836" rx="5.85842" ry="6.23878" fill="#F8D24E"/>
<ellipse cx="1098.45" cy="346.518" rx="5.85842" ry="6.23878" fill="#F8D24E"/>
<ellipse cx="1085.76" cy="369.393" rx="5.85842" ry="6.23878" fill="#F8D24E"/>
<ellipse cx="1098.45" cy="361.075" rx="5.85842" ry="6.23878" fill="#F8D24E"/>
<ellipse cx="1113.1" cy="351.717" rx="5.85842" ry="6.23878" fill="#F8D24E"/>
<ellipse cx="1126.77" cy="343.398" rx="5.85842" ry="6.23878" fill="#F8D24E"/>
<ellipse cx="1113.1" cy="365.234" rx="5.85842" ry="6.23878" fill="#F8D24E"/>
<ellipse cx="1125.79" cy="356.916" rx="5.85842" ry="6.23878" fill="#F8D24E"/>
<ellipse cx="1140.44" cy="347.557" rx="5.85842" ry="6.23878" fill="#F8D24E"/>
<ellipse cx="1154.11" cy="339.239" rx="5.85842" ry="6.23878" fill="#F8D24E"/>
<ellipse cx="1121.89" cy="376.672" rx="5.85842" ry="6.23878" fill="#F8D24E"/>
<ellipse cx="1134.58" cy="368.353" rx="5.85842" ry="6.23878" fill="#F8D24E"/>
<ellipse cx="1152.16" cy="377.712" rx="5.85842" ry="6.23878" fill="#F8D24E"/>
<ellipse cx="1149.23" cy="358.995" rx="5.85842" ry="6.23878" fill="#F8D24E"/>
<ellipse cx="1166.8" cy="368.353" rx="5.85842" ry="6.23878" fill="#F8D24E"/>
<ellipse cx="1180.47" cy="377.712" rx="5.85842" ry="6.23878" fill="#F8D24E"/>
<ellipse cx="1162.9" cy="350.677" rx="5.85842" ry="6.23878" fill="#F8D24E"/>
<ellipse cx="1180.47" cy="360.035" rx="5.85842" ry="6.23878" fill="#F8D24E"/>
<ellipse cx="1194.14" cy="369.393" rx="5.85842" ry="6.23878" fill="#F8D24E"/>
<ellipse cx="964.687" cy="308.045" rx="5.85842" ry="6.23878" fill="#F8D24E"/>
<ellipse cx="977.38" cy="299.727" rx="5.85842" ry="6.23878" fill="#F8D24E"/>
<ellipse cx="992.026" cy="290.369" rx="5.85842" ry="6.23878" fill="#F8D24E"/>
<ellipse cx="1005.7" cy="282.05" rx="5.85842" ry="6.23878" fill="#F8D24E"/>
<ellipse cx="940.276" cy="307.005" rx="5.85842" ry="6.23878" fill="#F8D24E"/>
<ellipse cx="952.97" cy="298.687" rx="5.85842" ry="6.23878" fill="#F8D24E"/>
<ellipse cx="967.616" cy="289.329" rx="5.85842" ry="6.23878" fill="#F8D24E"/>
<ellipse cx="981.285" cy="281.01" rx="5.85842" ry="6.23878" fill="#F8D24E"/>
<ellipse cx="994.956" cy="376.672" rx="5.85842" ry="6.23878" fill="#F8D24E"/>
<ellipse cx="1007.65" cy="368.353" rx="5.85842" ry="6.23878" fill="#F8D24E"/>
<ellipse cx="1022.29" cy="358.995" rx="5.85842" ry="6.23878" fill="#F8D24E"/>
<ellipse cx="1035.96" cy="350.677" rx="5.85842" ry="6.23878" fill="#F8D24E"/>
<ellipse cx="979.333" cy="370.433" rx="5.85842" ry="6.23878" fill="#F8D24E"/>
<ellipse cx="992.026" cy="362.115" rx="5.85842" ry="6.23878" fill="#F8D24E"/>
<ellipse cx="1006.67" cy="352.756" rx="5.85842" ry="6.23878" fill="#F8D24E"/>
<ellipse cx="1020.34" cy="344.438" rx="5.85842" ry="6.23878" fill="#F8D24E"/>
<ellipse cx="985.191" cy="348.597" rx="5.85842" ry="6.23878" fill="#F8D24E"/>
<ellipse cx="997.885" cy="340.279" rx="5.85842" ry="6.23878" fill="#F8D24E"/>
<ellipse cx="1012.53" cy="330.921" rx="5.85842" ry="6.23878" fill="#F8D24E"/>
<ellipse cx="1026.2" cy="322.602" rx="5.85842" ry="6.23878" fill="#F8D24E"/>
<ellipse rx="5.86745" ry="6.23032" transform="matrix(0.986931 -0.161124 0.142489 0.989794 680.19 303.798)" fill="#F8D24E"/>
<ellipse rx="5.86745" ry="6.23032" transform="matrix(0.986931 -0.161124 0.142489 0.989794 691.553 293.528)" fill="#F8D24E"/>
<ellipse rx="5.86745" ry="6.23032" transform="matrix(0.986931 -0.161124 0.142489 0.989794 704.699 281.914)" fill="#F8D24E"/>
<ellipse rx="5.86745" ry="6.23032" transform="matrix(0.986931 -0.161124 0.142489 0.989794 717.027 271.486)" fill="#F8D24E"/>
<ellipse cx="985.191" cy="312.204" rx="5.85842" ry="6.23878" fill="#F8D24E"/>
<ellipse cx="997.885" cy="303.886" rx="5.85842" ry="6.23878" fill="#F8D24E"/>
<ellipse cx="1012.53" cy="294.528" rx="5.85842" ry="6.23878" fill="#F8D24E"/>
<ellipse cx="1026.2" cy="286.209" rx="5.85842" ry="6.23878" fill="#F8D24E"/>
<ellipse cx="982.262" cy="331.96" rx="5.85842" ry="6.23878" fill="#F8D24E"/>
<ellipse cx="994.956" cy="323.642" rx="5.85842" ry="6.23878" fill="#F8D24E"/>
<ellipse cx="1009.6" cy="314.284" rx="5.85842" ry="6.23878" fill="#F8D24E"/>
<ellipse cx="1023.27" cy="305.965" rx="5.85842" ry="6.23878" fill="#F8D24E"/>
<ellipse cx="920.749" cy="301.806" rx="5.85842" ry="6.23878" fill="#F8D24E"/>
<ellipse cx="933.442" cy="293.488" rx="5.85842" ry="6.23878" fill="#F8D24E"/>
<ellipse cx="948.088" cy="284.13" rx="5.85842" ry="6.23878" fill="#F8D24E"/>
<path d="M947.112 308.045C950.347 308.045 952.97 305.252 952.97 301.806C952.97 298.361 950.347 295.567 947.112 295.567C943.876 295.567 941.253 298.361 941.253 301.806C941.253 305.252 943.876 308.045 947.112 308.045Z" fill="#F8D24E"/>
<ellipse cx="52.7256" cy="360.559" rx="5.85842" ry="6.2439" fill="#F8D24E"/>
<ellipse cx="65.419" cy="352.234" rx="5.85842" ry="6.2439" fill="#F8D24E"/>
<ellipse cx="80.065" cy="342.868" rx="5.85842" ry="6.2439" fill="#F8D24E"/>
<ellipse cx="93.7349" cy="334.543" rx="5.85842" ry="6.2439" fill="#F8D24E"/>
<ellipse cx="28.3159" cy="359.519" rx="5.85842" ry="6.2439" fill="#F8D24E"/>
<ellipse cx="41.0088" cy="351.193" rx="5.85842" ry="6.2439" fill="#F8D24E"/>
<ellipse cx="55.6548" cy="341.828" rx="5.85842" ry="6.2439" fill="#F8D24E"/>
<ellipse cx="69.3242" cy="333.503" rx="5.85842" ry="6.2439" fill="#F8D24E"/>
<ellipse cx="447.193" cy="56.6895" rx="5.85842" ry="6.2439" fill="#F8D24E"/>
<ellipse cx="459.886" cy="48.3643" rx="5.85842" ry="6.2439" fill="#F8D24E"/>
<ellipse cx="474.532" cy="38.9985" rx="5.85842" ry="6.2439" fill="#F8D24E"/>
<ellipse cx="488.202" cy="30.6733" rx="5.85842" ry="6.2439" fill="#F8D24E"/>
<ellipse cx="445.24" cy="99.3562" rx="5.85842" ry="6.2439" fill="#F8D24E"/>
<ellipse cx="457.933" cy="91.031" rx="5.85842" ry="6.2439" fill="#F8D24E"/>
<ellipse cx="472.58" cy="81.6648" rx="5.85842" ry="6.2439" fill="#F8D24E"/>
<ellipse cx="486.249" cy="73.3396" rx="5.85842" ry="6.2439" fill="#F8D24E"/>
<ellipse cx="448.169" cy="77.5024" rx="5.85842" ry="6.2439" fill="#F8D24E"/>
<ellipse cx="460.862" cy="69.1773" rx="5.85842" ry="6.2439" fill="#F8D24E"/>
<ellipse cx="475.509" cy="59.8115" rx="5.85842" ry="6.2439" fill="#F8D24E"/>
<ellipse cx="489.178" cy="51.4863" rx="5.85842" ry="6.2439" fill="#F8D24E"/>
<ellipse cx="446.216" cy="120.169" rx="5.85842" ry="6.2439" fill="#F8D24E"/>
<ellipse cx="458.91" cy="111.844" rx="5.85842" ry="6.2439" fill="#F8D24E"/>
<ellipse cx="473.556" cy="102.478" rx="5.85842" ry="6.2439" fill="#F8D24E"/>
<ellipse cx="487.225" cy="94.1528" rx="5.85842" ry="6.2439" fill="#F8D24E"/>
<ellipse cx="452.075" cy="134.738" rx="5.85842" ry="6.2439" fill="#F8D24E"/>
<ellipse cx="464.768" cy="126.413" rx="5.85842" ry="6.2439" fill="#F8D24E"/>
<ellipse cx="479.414" cy="117.047" rx="5.85842" ry="6.2439" fill="#F8D24E"/>
<ellipse cx="493.084" cy="108.722" rx="5.85842" ry="6.2439" fill="#F8D24E"/>
<ellipse cx="464.768" cy="146.185" rx="5.85842" ry="6.2439" fill="#F8D24E"/>
<ellipse cx="477.461" cy="137.86" rx="5.85842" ry="6.2439" fill="#F8D24E"/>
<ellipse cx="492.107" cy="128.494" rx="5.85842" ry="6.2439" fill="#F8D24E"/>
<ellipse cx="505.777" cy="120.169" rx="5.85842" ry="6.2439" fill="#F8D24E"/>
<ellipse cx="481.367" cy="155.551" rx="5.85842" ry="6.2439" fill="#F8D24E"/>
<ellipse cx="494.06" cy="147.226" rx="5.85842" ry="6.2439" fill="#F8D24E"/>
<ellipse cx="508.706" cy="137.86" rx="5.85842" ry="6.2439" fill="#F8D24E"/>
<ellipse cx="522.376" cy="129.535" rx="5.85842" ry="6.2439" fill="#F8D24E"/>
<ellipse cx="500.895" cy="157.633" rx="5.85842" ry="6.2439" fill="#F8D24E"/>
<ellipse cx="513.588" cy="149.307" rx="5.85842" ry="6.2439" fill="#F8D24E"/>
<ellipse cx="528.234" cy="139.942" rx="5.85842" ry="6.2439" fill="#F8D24E"/>
<ellipse cx="541.904" cy="131.616" rx="5.85842" ry="6.2439" fill="#F8D24E"/>
<ellipse cx="520.423" cy="161.795" rx="5.85842" ry="6.2439" fill="#F8D24E"/>
<ellipse cx="533.117" cy="153.47" rx="5.85842" ry="6.2439" fill="#F8D24E"/>
<ellipse cx="547.763" cy="144.104" rx="5.85842" ry="6.2439" fill="#F8D24E"/>
<ellipse cx="561.433" cy="135.779" rx="5.85842" ry="6.2439" fill="#F8D24E"/>
<ellipse cx="515.542" cy="181.568" rx="5.85842" ry="6.2439" fill="#F8D24E"/>
<ellipse cx="528.234" cy="173.242" rx="5.85842" ry="6.2439" fill="#F8D24E"/>
<ellipse cx="542.88" cy="163.876" rx="5.85842" ry="6.2439" fill="#F8D24E"/>
<ellipse cx="556.55" cy="155.551" rx="5.85842" ry="6.2439" fill="#F8D24E"/>
<ellipse cx="513.588" cy="200.299" rx="5.85842" ry="6.2439" fill="#F8D24E"/>
<ellipse cx="526.282" cy="191.974" rx="5.85842" ry="6.2439" fill="#F8D24E"/>
<ellipse cx="540.928" cy="182.608" rx="5.85842" ry="6.2439" fill="#F8D24E"/>
<ellipse cx="554.597" cy="174.283" rx="5.85842" ry="6.2439" fill="#F8D24E"/>
<ellipse cx="506.753" cy="224.234" rx="5.85842" ry="6.2439" fill="#F8D24E"/>
<ellipse cx="519.447" cy="215.909" rx="5.85842" ry="6.2439" fill="#F8D24E"/>
<ellipse cx="534.093" cy="206.543" rx="5.85842" ry="6.2439" fill="#F8D24E"/>
<ellipse cx="547.763" cy="198.218" rx="5.85842" ry="6.2439" fill="#F8D24E"/>
<ellipse cx="503.824" cy="245.047" rx="5.85842" ry="6.2439" fill="#F8D24E"/>
<ellipse cx="516.517" cy="236.722" rx="5.85842" ry="6.2439" fill="#F8D24E"/>
<ellipse cx="531.163" cy="227.356" rx="5.85842" ry="6.2439" fill="#F8D24E"/>
<ellipse cx="544.833" cy="219.031" rx="5.85842" ry="6.2439" fill="#F8D24E"/>
<ellipse cx="499.918" cy="266.901" rx="5.85842" ry="6.2439" fill="#F8D24E"/>
<ellipse cx="512.612" cy="258.576" rx="5.85842" ry="6.2439" fill="#F8D24E"/>
<ellipse cx="527.258" cy="249.21" rx="5.85842" ry="6.2439" fill="#F8D24E"/>
<ellipse cx="540.928" cy="240.885" rx="5.85842" ry="6.2439" fill="#F8D24E"/>
<ellipse cx="497.965" cy="284.592" rx="5.85842" ry="6.2439" fill="#F8D24E"/>
<ellipse cx="510.659" cy="276.267" rx="5.85842" ry="6.2439" fill="#F8D24E"/>
<ellipse cx="525.305" cy="266.901" rx="5.85842" ry="6.2439" fill="#F8D24E"/>
<ellipse cx="538.975" cy="258.576" rx="5.85842" ry="6.2439" fill="#F8D24E"/>
<ellipse cx="496.013" cy="303.324" rx="5.85842" ry="6.2439" fill="#F8D24E"/>
<ellipse cx="508.707" cy="294.998" rx="5.85842" ry="6.2439" fill="#F8D24E"/>
<ellipse cx="523.353" cy="285.633" rx="5.85842" ry="6.2439" fill="#F8D24E"/>
<ellipse cx="537.022" cy="277.307" rx="5.85842" ry="6.2439" fill="#F8D24E"/>
<ellipse cx="501.871" cy="318.933" rx="5.85842" ry="6.2439" fill="#F8D24E"/>
<ellipse cx="514.564" cy="310.608" rx="5.85842" ry="6.2439" fill="#F8D24E"/>
<ellipse cx="529.21" cy="301.242" rx="5.85842" ry="6.2439" fill="#F8D24E"/>
<ellipse cx="542.88" cy="292.917" rx="5.85842" ry="6.2439" fill="#F8D24E"/>
<ellipse cx="516.518" cy="327.259" rx="5.85842" ry="6.2439" fill="#F8D24E"/>
<ellipse cx="529.211" cy="318.933" rx="5.85842" ry="6.2439" fill="#F8D24E"/>
<ellipse cx="543.857" cy="309.568" rx="5.85842" ry="6.2439" fill="#F8D24E"/>
<ellipse cx="557.526" cy="301.242" rx="5.85842" ry="6.2439" fill="#F8D24E"/>
<ellipse cx="533.117" cy="332.462" rx="5.85842" ry="6.2439" fill="#F8D24E"/>
<ellipse cx="545.81" cy="324.137" rx="5.85842" ry="6.2439" fill="#F8D24E"/>
<ellipse cx="560.456" cy="314.771" rx="5.85842" ry="6.2439" fill="#F8D24E"/>
<ellipse cx="574.125" cy="306.446" rx="5.85842" ry="6.2439" fill="#F8D24E"/>
<ellipse cx="554.597" cy="333.503" rx="5.85842" ry="6.2439" fill="#F8D24E"/>
<ellipse cx="567.291" cy="325.177" rx="5.85842" ry="6.2439" fill="#F8D24E"/>
<ellipse cx="581.937" cy="315.811" rx="5.85842" ry="6.2439" fill="#F8D24E"/>
<ellipse cx="595.606" cy="307.486" rx="5.85842" ry="6.2439" fill="#F8D24E"/>
<ellipse cx="579.984" cy="333.503" rx="5.85842" ry="6.2439" fill="#F8D24E"/>
<ellipse cx="592.677" cy="325.177" rx="5.85842" ry="6.2439" fill="#F8D24E"/>
<ellipse cx="607.323" cy="315.811" rx="5.85842" ry="6.2439" fill="#F8D24E"/>
<ellipse cx="620.993" cy="307.486" rx="5.85842" ry="6.2439" fill="#F8D24E"/>
<ellipse cx="601.464" cy="332.462" rx="5.85842" ry="6.2439" fill="#F8D24E"/>
<ellipse cx="614.157" cy="324.137" rx="5.85842" ry="6.2439" fill="#F8D24E"/>
<ellipse cx="628.804" cy="314.771" rx="5.85842" ry="6.2439" fill="#F8D24E"/>
<ellipse cx="642.473" cy="306.446" rx="5.85842" ry="6.2439" fill="#F8D24E"/>
<ellipse cx="625.875" cy="331.421" rx="5.85842" ry="6.2439" fill="#F8D24E"/>
<ellipse cx="638.568" cy="323.096" rx="5.85842" ry="6.2439" fill="#F8D24E"/>
<ellipse cx="653.213" cy="313.73" rx="5.85842" ry="6.2439" fill="#F8D24E"/>
<ellipse cx="666.883" cy="305.405" rx="5.85842" ry="6.2439" fill="#F8D24E"/>
<ellipse cx="648.332" cy="304.364" rx="5.85842" ry="6.2439" fill="#F8D24E"/>
<ellipse cx="661.025" cy="296.039" rx="5.85842" ry="6.2439" fill="#F8D24E"/>
<ellipse cx="675.671" cy="286.673" rx="5.85842" ry="6.2439" fill="#F8D24E"/>
<ellipse cx="689.341" cy="278.348" rx="5.85842" ry="6.2439" fill="#F8D24E"/>
</svg>
<!--CURSOR black-->
<svg width="19" height="24" viewBox="0 0 19 24" fill="none" xmlns="http://www.w3.org/2000/svg">
<path d="M6.04696 2.01171L16.9811 12.2169C18.8522 13.9633 17.8177 17.1 15.2748 17.3907L11.1573 17.8612C10.124 17.9793 9.15329 18.4167 8.38025 19.1124L6.0069 21.2484C4.07633 22.9859 1 21.6159 1 19.0186V4.20487C1 1.58174 4.12929 0.221893 6.04696 2.01171Z" stroke="#000000" stroke-width="2"/>
</svg>
<!--CURSOR white-->
<svg width="19" height="24" viewBox="0 0 19 24" fill="#000000" xmlns="http://www.w3.org/2000/svg">
<path d="M6.04696 2.01171L16.9811 12.2169C18.8522 13.9633 17.8177 17.1 15.2748 17.3907L11.1573 17.8612C10.124 17.9793 9.15329 18.4167 8.38025 19.1124L6.0069 21.2484C4.07633 22.9859 1 21.6159 1 19.0186V4.20487C1 1.58174 4.12929 0.221893 6.04696 2.01171Z" stroke="#ffffff" stroke-width="2"/>
</svg>
